<svg width="63" height="25" viewBox="0 0 63 25" fill="none" xmlns="http://www.w3.org/2000/svg">
<g id="ARPA STUDIO BK" clip-path="url(#clip0_1_482)">
<g id="Group">
<path id="Vector" d="M0.558341 14.643H3.01302C3.20265 14.643 3.38175 14.5376 3.47657 14.3691L8.63877 5.06702C8.83894 4.69831 9.3657 4.69831 9.5764 5.06702L14.7281 14.3691C14.8229 14.5376 15.002 14.643 15.1916 14.643H17.6463C18.0572 14.643 18.31 14.2005 18.1098 13.8318L10.6615 0.379124C10.5667 0.210571 10.3876 0.105225 10.1874 0.105225H8.00667C7.81704 0.105225 7.63794 0.210571 7.54312 0.379124L0.0842605 13.8318C-0.115907 14.2005 0.147471 14.643 0.558341 14.643Z" fill="#1A2441"/>
<path id="Vector_2" d="M45.3536 14.4324H47.8083C47.9979 14.4324 48.177 14.3271 48.2718 14.1585L53.434 4.93019C53.6342 4.56148 54.1609 4.56148 54.3717 4.93019L59.5233 14.1585C59.6181 14.3271 59.7972 14.4324 59.9869 14.4324H62.4416C62.8524 14.4324 63.1158 13.9899 62.9051 13.6318L55.4568 0.2739C55.362 0.105346 55.1829 0 54.9932 0H52.8125C52.6228 0 52.4437 0.105346 52.3489 0.2739L44.89 13.6318C44.6899 13.9899 44.9427 14.4324 45.3536 14.4324Z" fill="#1A2441"/>
<path id="Vector_3" d="M31.9003 14.4325H34.0495C34.3445 14.4325 34.5868 14.1902 34.5868 13.8952V11.1878C34.5868 10.8928 34.8291 10.6505 35.1241 10.6505H40.3284H40.5391H41.7401C42.467 10.6505 43.1518 10.5136 43.7945 10.2292C45.1008 9.64976 46.0384 8.71218 46.6179 7.40589C46.9023 6.76328 47.0393 6.07853 47.0393 5.36217C47.0393 4.63529 46.9023 3.95054 46.6179 3.30793C46.0384 2.00164 45.1008 1.05352 43.805 0.484653C43.1624 0.200219 42.4776 0.063269 41.7507 0.063269H40.5497L31.9109 0.0527344C31.6159 0.0527344 31.3736 0.29503 31.3736 0.589999V3.28686H31.3841V7.43749H31.3736V13.9057C31.363 14.1902 31.6053 14.4325 31.9003 14.4325ZM34.6394 3.81359C34.6394 3.51862 34.8818 3.27632 35.1767 3.27632H40.3284H40.5391H41.7401C42.3196 3.27632 42.8042 3.47648 43.215 3.88733C43.6154 4.28764 43.8261 4.78277 43.8261 5.36217C43.8261 5.93104 43.6259 6.41563 43.215 6.82648C42.8147 7.2268 42.3196 7.43749 41.7401 7.43749H40.5391H40.3284H35.1767C34.8818 7.43749 34.6394 7.19519 34.6394 6.90023V3.81359Z" fill="#1A2441"/>
<path id="Vector_4" d="M13.9906 3.06537C14.0854 3.23393 14.2645 3.33927 14.4647 3.33927H24.1886C24.7996 3.33927 25.3264 3.53943 25.7688 3.93975C26.2008 4.34006 26.422 4.83519 26.422 5.40406C26.422 5.97292 26.2008 6.45752 25.7688 6.85783C25.3369 7.25815 24.8102 7.4583 24.1886 7.4583H17.3829C16.972 7.4583 16.7086 7.90076 16.9088 8.25893L18.0993 10.3869C18.1941 10.5555 18.3732 10.6608 18.5734 10.6608H22.3028C22.4608 10.6608 22.6188 10.7346 22.7242 10.861L25.4317 14.2215C25.5371 14.3479 25.6846 14.4217 25.8531 14.4217H28.7924C29.2454 14.4217 29.4983 13.8949 29.2138 13.5473L26.9277 10.7135C26.717 10.4501 26.8013 10.0709 27.0963 9.91286C28.1603 9.33346 28.9505 8.50123 29.4667 7.43723C29.7722 6.75248 29.9197 6.07827 29.9197 5.40406C29.9197 4.71931 29.7722 4.03456 29.4667 3.36034C28.8346 2.06459 27.8232 1.12701 26.4115 0.558139C25.7267 0.273705 24.9892 0.136755 24.1991 0.136755L13.2637 0.126221C12.8528 0.126221 12.5894 0.568674 12.7896 0.92685L13.9906 3.06537Z" fill="#1A2441"/>
<path id="Vector_5" d="M62.1782 16.4446H0.821739C0.368729 16.4446 0 16.8133 0 17.2663V23.6397C0 24.0927 0.368729 24.4614 0.821739 24.4614H62.1888C62.6418 24.4614 63.0105 24.0927 63.0105 23.6397V17.2663C63 16.8133 62.6313 16.4446 62.1782 16.4446ZM7.64849 22.0595C7.53261 22.2281 7.36405 22.365 7.14281 22.4493C6.93211 22.5441 6.6898 22.5863 6.41588 22.5863C5.89966 22.5863 5.41505 22.3756 4.94097 21.9542V22.502H4.24565V21.0693L4.71973 21.0377C4.93043 21.3221 5.19381 21.5433 5.49933 21.7119C5.80485 21.8804 6.09983 21.9647 6.37374 21.9647C6.56338 21.9647 6.71087 21.9226 6.82676 21.8488C6.94264 21.7751 7.00585 21.6697 7.00585 21.5328C7.00585 21.3853 6.9005 21.2484 6.70033 21.1325C6.50017 21.0166 6.16304 20.8902 5.67843 20.7638C5.19381 20.6374 4.83562 20.4583 4.60385 20.2476C4.38261 20.0369 4.26672 19.763 4.26672 19.4469C4.26672 19.2257 4.32993 19.0256 4.45635 18.857C4.58278 18.6884 4.75134 18.5515 4.9515 18.4567C5.16221 18.3619 5.38344 18.3197 5.62575 18.3197C6.15251 18.3197 6.58445 18.4988 6.91104 18.857V18.404H7.60635V19.8051L7.15334 19.8262C7.00585 19.5418 6.81622 19.3205 6.57391 19.1625C6.3316 19.015 6.07876 18.9307 5.81538 18.9307C5.60468 18.9307 5.42558 18.9729 5.29916 19.0572C5.16221 19.1414 5.099 19.2573 5.099 19.3943C5.099 19.5418 5.18328 19.6682 5.35184 19.7735C5.5204 19.8789 5.79431 19.9842 6.19465 20.0896C6.7214 20.237 7.13227 20.4161 7.40619 20.6268C7.69063 20.827 7.82759 21.1009 7.82759 21.4485C7.82759 21.6908 7.77491 21.891 7.64849 22.0595ZM18.2363 19.8578H17.541V19.015H16.4875V21.8699H17.2038V22.502H14.9599V21.8699H15.6763V19.015H14.6017V19.8578H13.9064V18.3829H18.2257V19.8578H18.2363ZM29.414 19.0256H28.6977V20.9007C28.6977 21.2168 28.6134 21.5117 28.4553 21.7646C28.2973 22.0279 28.0655 22.2281 27.7811 22.365C27.4967 22.5125 27.1701 22.5757 26.8013 22.5757C26.4326 22.5757 26.0955 22.502 25.811 22.365C25.5266 22.2175 25.2948 22.0174 25.1368 21.7646C24.9788 21.5117 24.905 21.2168 24.905 20.8902V19.015H24.1886V18.3829H26.3694V19.015H25.7057V20.8586C25.7057 21.0693 25.7584 21.2589 25.8426 21.4169C25.9375 21.5749 26.0639 21.7119 26.2324 21.7962C26.401 21.891 26.5906 21.9331 26.8013 21.9331C27.012 21.9331 27.2017 21.891 27.3702 21.7962C27.5388 21.7013 27.6652 21.5749 27.76 21.4064C27.8548 21.2378 27.897 21.0482 27.897 20.848L27.8864 19.015H27.2333V18.3829H29.4246V19.0256H29.414ZM39.4856 21.596C39.2644 21.9015 38.9694 22.1333 38.6007 22.2807C38.2319 22.4282 37.8421 22.502 37.4207 22.502H35.3875V21.8699H36.1038V19.015H35.3875V18.3829H37.4207C37.8421 18.3829 38.2319 18.4567 38.6007 18.6042C38.9694 18.7517 39.2644 18.9834 39.4856 19.2889C39.7174 19.5944 39.8227 19.9842 39.8227 20.4372C39.8227 20.9007 39.7068 21.28 39.4856 21.596ZM48.2298 19.0256H47.5028V21.8804H48.2298V22.5125H45.9858V21.8804H46.7022V19.0256H45.9858V18.3935H48.2298V19.0256ZM58.6701 21.5433C58.4804 21.8699 58.217 22.1227 57.8799 22.3124C57.5428 22.502 57.1741 22.5968 56.7632 22.5968C56.3418 22.5968 55.9731 22.502 55.6359 22.3124C55.2988 22.1227 55.0354 21.8699 54.8458 21.5433C54.6562 21.2168 54.5614 20.8586 54.5614 20.4477C54.5614 20.0474 54.6562 19.6787 54.8458 19.3521C55.0354 19.0256 55.2988 18.7727 55.6359 18.5831C55.9731 18.3935 56.3418 18.2987 56.7632 18.2987C57.1741 18.2987 57.5428 18.3935 57.8799 18.5831C58.217 18.7727 58.4804 19.0256 58.6701 19.3521C58.8597 19.6787 58.9545 20.0474 58.9545 20.4477C58.9545 20.848 58.8597 21.2168 58.6701 21.5433Z" fill="#1A2441"/>
<path id="Vector_6" d="M57.4796 19.1521C57.2795 19.0256 57.0371 18.9519 56.7738 18.9519C56.4999 18.9519 56.2575 19.0151 56.0468 19.1521C55.8361 19.289 55.6781 19.4681 55.5728 19.6893C55.4569 19.9106 55.4042 20.1739 55.4042 20.4478C55.4042 20.7323 55.4569 20.9851 55.5728 21.2063C55.6887 21.4275 55.8467 21.6066 56.0468 21.733C56.2575 21.8595 56.4893 21.9332 56.7738 21.9332C57.0371 21.9332 57.2689 21.87 57.4796 21.733C57.6903 21.6066 57.8483 21.4275 57.9537 21.1958C58.0696 20.964 58.1223 20.7112 58.1223 20.4373C58.1223 20.1528 58.0696 19.9 57.9537 19.6788C57.8483 19.4576 57.6903 19.2785 57.4796 19.1521Z" fill="#1A2441"/>
<path id="Vector_7" d="M38.5058 19.3415C38.1792 19.1308 37.7894 19.0149 37.3259 19.0149H36.8939V21.8698H37.3259C37.7894 21.8698 38.1792 21.7644 38.5058 21.5432C38.8324 21.322 38.9904 20.9533 38.9904 20.4371C38.9904 19.9314 38.8324 19.5627 38.5058 19.3415Z" fill="#1A2441"/>
</g>
</g>
<defs>
<clipPath id="clip0_1_482">
<rect width="63" height="24.4508" fill="white"/>
</clipPath>
</defs>
</svg>
