<svg width="123" height="135" viewBox="0 0 123 135" fill="none" xmlns="http://www.w3.org/2000/svg">
<g id="Group">
<path id="Vector" d="M118.145 36.1207L65.6732 66.1064C63.4422 67.3833 61.6223 70.4509 61.6223 72.9607V131.817C61.6223 134.326 63.4422 135.325 65.6732 134.048L118.145 104.062C120.375 102.785 122.195 99.7174 122.195 97.2076V38.3516C122.195 35.8418 120.375 34.8437 118.145 36.1207ZM84.4308 89.3552C84.4308 84.7319 87.7772 79.0518 91.9015 76.7034C96.0258 74.355 99.3723 76.1897 99.3723 80.813C99.3723 85.4364 96.0258 91.1165 91.9015 93.4649C87.7772 95.8132 84.4308 93.9786 84.4308 89.3552ZM98.2568 71.7718C96.4808 71.3168 94.2792 71.6838 91.9162 73.0488C89.4797 74.4431 87.2342 76.6447 85.4435 79.2132L67.0088 69.0125L116.794 40.5532L98.2568 71.7718ZM83.1685 83.1321C81.9209 85.8033 81.1871 88.6214 81.1871 91.2192C81.1871 93.8171 81.9503 95.8426 83.2272 97.0902L64.8953 127.971V73.0047L83.1685 83.1321ZM85.5169 98.3818C87.3075 98.8514 89.5091 98.4992 91.9162 97.1195C94.2058 95.8132 96.3341 93.7731 98.0807 91.3954L116.28 101.479L66.9354 129.674L85.5169 98.3818ZM100.429 87.5206C101.809 84.7025 102.645 81.7084 102.645 78.949C102.645 76.1897 101.867 74.2816 100.561 73.0341L118.937 42.0943V97.7653L100.429 87.5206Z" fill="white"/>
<path id="Vector_2" d="M60.6389 131.817V72.9607C60.6389 70.4509 58.8189 67.3833 56.5879 66.1064L4.1166 36.1207C1.88565 34.8437 0.0656738 35.8418 0.0656738 38.3516V97.2076C0.0656738 99.7174 1.88565 102.785 4.1166 104.062L56.5879 134.048C58.8189 135.325 60.6389 134.326 60.6389 131.817ZM30.3596 76.7034C34.4839 79.0518 37.8304 84.7319 37.8304 89.3552C37.8304 93.9786 34.4839 95.8279 30.3596 93.4649C26.2353 91.1165 22.8889 85.4364 22.8889 80.813C22.8889 76.1897 26.2353 74.3404 30.3596 76.7034ZM55.2376 129.615L5.45224 101.17L23.8869 90.9697C25.6922 93.5383 27.9379 95.7399 30.3596 97.1342C32.7373 98.4992 34.9243 98.8661 36.7002 98.4111L55.2376 129.63V129.615ZM3.32404 97.1635V42.1971L21.656 73.0781C20.3791 74.3257 19.6158 76.3218 19.6158 78.949C19.6158 81.5763 20.3497 84.3503 21.5973 87.0362L3.32404 97.1635ZM5.37885 40.5092L54.7239 68.7043L36.5241 78.7876C34.7775 76.4099 32.6493 74.3697 30.3596 73.0634C27.9672 71.6984 25.7509 71.3315 23.9603 71.8012L5.37885 40.5092ZM57.3805 72.4176V128.089L39.0045 97.1342C40.3108 95.8866 41.0887 93.8905 41.0887 91.2339C41.0887 88.5773 40.2521 85.4804 38.8725 82.6624L57.3805 72.4176Z" fill="white"/>
<path id="Vector_3" d="M117.557 29.6774L65.5264 0.939279C64.3669 0.293478 62.8258 -0.0147448 61.314 0.0146097H61.2113C59.6848 -6.75526e-05 58.1437 0.308156 56.9989 0.939279L4.96788 29.6921C2.7516 30.9103 2.76629 32.8771 4.99724 34.0806L57.3805 63.6554C58.4373 64.2278 59.8169 64.5213 61.2113 64.536H61.314C62.7084 64.5213 64.088 64.2278 65.1448 63.6554L117.528 34.0806C119.759 32.8918 119.774 30.925 117.557 29.6921M58.9069 3.41974L58.8776 23.4249C55.7954 23.7038 52.8452 24.4817 50.4822 25.7733C48.0604 27.1089 46.6661 28.7821 46.2551 30.4994L9.51785 30.6902L58.9069 3.41974ZM58.8336 60.9107L9.91414 33.2L46.3432 33.0092C46.8569 34.6237 48.2512 36.1795 50.5556 37.4124C52.9039 38.6746 55.81 39.4085 58.8482 39.658L58.8189 60.9254L58.8336 60.9107ZM61.27 37.2509H61.2406C58.5547 37.2656 55.8541 36.7225 53.7992 35.6217C49.6896 33.4201 49.6603 29.7802 53.7552 27.5199C55.7954 26.3897 58.496 25.8173 61.1819 25.8026C63.8679 25.8173 66.73 26.3897 68.7848 27.5199C72.8651 29.7802 72.8504 33.4055 68.7407 35.6217C66.6859 36.7225 63.9853 37.2656 61.2993 37.2509M63.7064 60.9107L63.6771 39.6433C66.7153 39.3938 69.636 38.6599 71.9697 37.3977C74.2741 36.1648 75.6684 34.609 76.1821 32.9945L112.611 33.1853L63.6918 60.896L63.7064 60.9107ZM76.2849 30.4994C75.8592 28.7821 74.4649 27.1089 72.0578 25.7733C69.6947 24.467 66.7446 23.6891 63.6624 23.4249L63.633 3.41974L113.007 30.7048L76.2702 30.514L76.2849 30.4994Z" fill="white"/>
</g>
</svg>
