<svg width="96" height="218" viewBox="0 0 96 218" fill="none" xmlns="http://www.w3.org/2000/svg">
<g id="SAT&#195;&#137;LITE" clip-path="url(#clip0_1_40)">
<path id="Vector" d="M92.8154 28.3961L51.563 51.9661C49.8036 52.9686 48.3784 55.3866 48.3784 57.3524V103.618C48.3784 105.583 49.8036 106.37 51.563 105.367L92.8154 81.7971C94.5748 80.7946 96 78.3766 96 76.4108V30.1456C96 28.1798 94.5748 27.3935 92.8154 28.3961ZM66.3164 70.2382C66.3164 66.6015 68.9506 62.1391 72.1941 60.2912C75.4377 58.4434 78.0719 59.8882 78.0719 63.525C78.0719 67.1617 75.4377 71.6241 72.1941 73.472C68.9506 75.3198 66.3164 73.8749 66.3164 70.2382ZM77.1774 56.4186C75.7817 56.0648 74.0518 56.3498 72.1843 57.4212C70.2677 58.5122 68.5083 60.2519 67.0929 62.2669L52.6049 54.2464L91.744 31.8756L77.1676 56.4186H77.1774ZM65.3138 65.3532C64.3309 67.4566 63.751 69.6681 63.751 71.7126C63.751 73.757 64.3506 75.3493 65.363 76.3322L50.9438 100.61V57.3917L65.3138 65.3532ZM67.1617 77.3446C68.5672 77.7181 70.307 77.433 72.1941 76.3519C74.0027 75.3198 75.6736 73.7177 77.0398 71.8502L91.3509 79.7724L52.5656 101.937L67.1715 77.3446H67.1617ZM78.8877 68.8032C79.9787 66.5916 80.6274 64.2327 80.6274 62.0703C80.6274 59.9079 80.018 58.4041 78.986 57.4212L93.4346 33.0944V76.8531L78.8877 68.7933V68.8032Z" fill="white"/>
<path id="Vector_2" d="M47.6118 103.618V57.3524C47.6118 55.3866 46.1866 52.9686 44.4272 51.9661L3.1846 28.3961C1.42521 27.3935 0 28.1798 0 30.1456L0 76.4108C0 78.3766 1.42521 80.7946 3.1846 81.7971L44.437 105.367C46.1964 106.37 47.6216 105.583 47.6216 103.618M23.8059 60.2912C27.0495 62.1391 29.6836 66.6015 29.6836 70.2382C29.6836 73.8749 27.0495 75.3198 23.8059 73.472C20.5623 71.6241 17.9281 67.1617 17.9281 63.525C17.9281 59.8882 20.5623 58.4434 23.8059 60.2912ZM43.3656 101.888L4.22648 79.5266L18.7144 71.5061C20.1298 73.5211 21.8892 75.2608 23.8059 76.3519C25.6734 77.4232 27.3935 77.7083 28.799 77.3544L43.3755 101.897L43.3656 101.888ZM2.56537 76.3813L2.56537 33.173L16.9845 57.4507C15.982 58.4336 15.3726 59.9964 15.3726 62.0703C15.3726 64.1442 15.9525 66.3164 16.9354 68.4198L2.56537 76.3813ZM4.17733 31.8362L42.9626 54.0007L28.6614 61.9229C27.2853 60.0553 25.6144 58.4532 23.8157 57.4212C21.9285 56.34 20.1888 56.0549 18.7833 56.4284L4.1675 31.8362H4.17733ZM45.0562 56.9101V100.669L30.6076 76.342C31.6298 75.3591 32.249 73.7865 32.249 71.7027C32.249 69.619 31.5905 67.1814 30.5093 64.9699L45.0562 56.9101Z" fill="white"/>
<path id="Vector_3" d="M92.8154 83.3798L51.563 106.95C49.8036 107.952 48.3784 110.37 48.3784 112.336V158.601C48.3784 160.567 49.8036 161.353 51.563 160.351L92.8154 136.781C94.5748 135.778 96 133.36 96 131.395V85.1294C96 83.1635 94.5748 82.3772 92.8154 83.3798ZM66.3164 125.222C66.3164 121.585 68.9506 117.123 72.1941 115.275C75.4377 113.427 78.0719 114.872 78.0719 118.509C78.0719 122.145 75.4377 126.608 72.1941 128.456C68.9506 130.304 66.3164 128.859 66.3164 125.222ZM77.1774 111.402C75.7817 111.048 74.0518 111.334 72.1843 112.405C70.2677 113.496 68.5083 115.236 67.0929 117.251L52.6049 109.23L91.744 86.8593L77.1676 111.402H77.1774ZM65.3138 120.337C64.3309 122.44 63.751 124.652 63.751 126.696C63.751 128.741 64.3506 130.333 65.363 131.316L50.9438 155.594V112.385L65.3138 120.347V120.337ZM67.1617 132.328C68.5672 132.702 70.307 132.417 72.1941 131.336C74.0027 130.304 75.6736 128.701 77.0398 126.834L91.3509 134.756L52.5656 156.92L67.1715 132.328H67.1617ZM78.8877 123.787C79.9787 121.575 80.6274 119.216 80.6274 117.054C80.6274 114.892 80.018 113.388 78.986 112.405L93.4346 88.0781V131.837L78.8877 123.777V123.787Z" fill="white"/>
<path id="Vector_4" d="M47.6118 158.611V112.346C47.6118 110.38 46.1866 107.962 44.4272 106.96L3.1846 83.3798C1.42521 82.3772 0 83.1635 0 85.1294L0 131.395C0 133.36 1.42521 135.778 3.1846 136.781L44.437 160.351C46.1964 161.353 47.6216 160.567 47.6216 158.601M23.8157 115.275C27.0593 117.123 29.6935 121.585 29.6935 125.222C29.6935 128.859 27.0593 130.304 23.8157 128.456C20.5721 126.608 17.938 122.145 17.938 118.509C17.938 114.872 20.5721 113.427 23.8157 115.275ZM43.3755 156.871L4.22648 134.51L18.7144 126.49C20.1298 128.505 21.8892 130.245 23.8059 131.336C25.6734 132.407 27.3935 132.692 28.799 132.338L43.3755 156.881V156.871ZM2.56537 131.365L2.56537 88.1567L16.9845 112.434C15.982 113.417 15.3726 114.98 15.3726 117.054C15.3726 119.128 15.9525 121.3 16.9354 123.404L2.56537 131.365ZM4.17733 86.8199L42.9626 108.984L28.6614 116.907C27.2853 115.039 25.6144 113.437 23.8157 112.405C21.9285 111.324 20.1888 111.039 18.7833 111.412L4.17733 86.8199ZM45.0562 111.894V155.653L30.6076 131.326C31.6298 130.343 32.249 128.77 32.249 126.686C32.249 124.603 31.5905 122.165 30.5093 119.954L45.0562 111.894Z" fill="white"/>
<path id="Vector_5" d="M92.8154 140.172L51.563 163.742C49.8036 164.744 48.3784 167.162 48.3784 169.128V215.393C48.3784 217.359 49.8036 218.145 51.563 217.143L92.8154 193.573C94.5748 192.57 96 190.152 96 188.186V141.921C96 139.955 94.5748 139.169 92.8154 140.172ZM66.3164 182.014C66.3164 178.377 68.9506 173.915 72.1941 172.067C75.4377 170.219 78.0719 171.664 78.0719 175.3C78.0719 178.937 75.4377 183.4 72.1941 185.247C68.9506 187.095 66.3164 185.65 66.3164 182.014ZM77.1774 168.194C75.7817 167.84 74.0518 168.125 72.1843 169.197C70.2677 170.288 68.5083 172.027 67.0929 174.042L52.6049 166.022L91.744 143.651L77.1676 168.194H77.1774ZM65.3138 177.129C64.3309 179.232 63.751 181.444 63.751 183.478C63.751 185.513 64.3506 187.115 65.363 188.098L50.9438 212.376V169.167L65.3138 177.129ZM67.1617 189.12C68.5672 189.494 70.307 189.208 72.1941 188.127C74.0027 187.095 75.6736 185.493 77.0398 183.626L91.3509 191.548L52.5656 213.712L67.1715 189.12H67.1617ZM78.8877 180.579C79.9787 178.367 80.6274 176.008 80.6274 173.846C80.6274 171.683 80.018 170.18 78.986 169.197L93.4346 144.87V188.629L78.8877 180.569V180.579Z" fill="white"/>
<path id="Vector_6" d="M47.6118 215.393V169.128C47.6118 167.162 46.1866 164.744 44.4272 163.742L3.1846 140.172C1.42521 139.169 0 139.955 0 141.921L0 188.186C0 190.152 1.42521 192.57 3.1846 193.573L44.437 217.143C46.1964 218.145 47.6216 217.359 47.6216 215.393M23.8157 172.067C27.0593 173.915 29.6935 178.377 29.6935 182.014C29.6935 185.65 27.0593 187.095 23.8157 185.247C20.5721 183.4 17.938 178.937 17.938 175.3C17.938 171.664 20.5721 170.219 23.8157 172.067ZM43.3755 213.663L4.22648 191.302L18.7144 183.282C20.1298 185.297 21.8892 187.036 23.8059 188.127C25.6734 189.199 27.3935 189.484 28.799 189.13L43.3755 213.673V213.663ZM2.56537 188.157L2.56537 144.948L16.9845 169.226C15.982 170.209 15.3726 171.772 15.3726 173.846C15.3726 175.92 15.9525 178.092 16.9354 180.195L2.56537 188.157ZM4.17733 143.622L42.9626 165.786L28.6614 173.708C27.2853 171.841 25.6144 170.238 23.8157 169.206C21.9285 168.125 20.1888 167.84 18.7833 168.214L4.17733 143.622ZM45.0562 168.695V212.454L30.6076 188.127C31.6298 187.144 32.249 185.572 32.249 183.488C32.249 181.404 31.5905 178.967 30.5093 176.755L45.0562 168.695Z" fill="white"/>
<path id="Vector_7" d="M92.3534 23.3341L51.4549 0.73717C50.5408 0.226061 49.3318 -0.00983504 48.1327 -6.02019e-06L48.0541 -6.02019e-06C46.8549 -0.0196641 45.646 0.226061 44.7417 0.727341L3.84315 23.3341C2.10341 24.2973 2.11324 25.8405 3.8628 26.7841L45.0464 50.0297C45.8819 50.4818 46.963 50.7079 48.0639 50.7177H48.1524C49.2434 50.7079 50.3344 50.472 51.1699 50.0297L92.3534 26.7841C94.103 25.8405 94.1128 24.2973 92.3731 23.3341M46.2455 2.68332L46.2259 18.4097C43.8079 18.626 41.4785 19.2354 39.6306 20.2576C37.7336 21.3093 36.6327 22.6166 36.3084 23.973L7.43074 24.1302L46.2455 2.68332ZM46.1964 47.8771L7.73544 26.096L36.3772 25.9388C36.7802 27.2165 37.881 28.4353 39.6896 29.3986C41.5276 30.3815 43.8276 30.9712 46.216 31.158L46.1964 47.8771ZM48.113 29.2806H48.0934C45.9801 29.2905 43.8571 28.8678 42.2353 28.0029C39.0015 26.273 38.9819 23.4127 42.196 21.6337C43.8079 20.749 45.9212 20.2969 48.0344 20.2773C50.1476 20.2871 52.3985 20.7392 54.0104 21.6337C57.2245 23.4127 57.2049 26.2631 53.9711 28.0029C52.3493 28.8678 50.2361 29.3003 48.113 29.2806ZM50.0002 47.8771L49.9805 31.158C52.369 30.9614 54.6592 30.3815 56.507 29.3986C58.3156 28.4255 59.4164 27.2067 59.8194 25.9388L88.4612 26.096L50.0002 47.887V47.8771ZM59.8882 23.973C59.5638 22.6166 58.463 21.3093 56.566 20.2576C54.7083 19.2354 52.3887 18.626 49.9707 18.4097L49.9511 2.68332L88.7658 24.1302L59.8882 23.973Z" fill="white"/>
</g>
<defs>
<clipPath id="clip0_1_40">
<rect width="96" height="217.585" fill="white"/>
</clipPath>
</defs>
</svg>
