<svg width="215" height="215" viewBox="0 0 215 215" fill="none" xmlns="http://www.w3.org/2000/svg">
<g id="Earth_Globe" clip-path="url(#clip0_1_48)">
<path id="Vector" d="M107.375 214.325C166.442 214.325 214.325 166.442 214.325 107.375C214.325 48.3086 166.442 0.425582 107.375 0.425582C48.3086 0.425582 0.425598 48.3086 0.425598 107.375C0.425598 166.442 48.3086 214.325 107.375 214.325Z" fill="#1F3262" stroke="white" stroke-width="0.803046" stroke-miterlimit="10"/>
<g id="Group">
<path id="Vector_2" d="M85.9017 206.318C91.5873 207.555 97.4174 208.31 103.336 208.543" stroke="white" stroke-width="0.803046" stroke-miterlimit="10"/>
<path id="Vector_3" d="M72.788 202.52C75.687 203.58 78.6422 204.504 81.6376 205.291" stroke="white" stroke-width="0.803046" stroke-miterlimit="10"/>
<path id="Vector_4" d="M9.98988 79.6702C5.51691 95.3296 4.77008 112.298 8.55243 129.322C16.0288 162.986 39.4616 188.973 69.1261 201.115" stroke="white" stroke-width="0.803046" stroke-miterlimit="10"/>
<path id="Vector_5" d="M23.6015 50.5436C19.9476 55.932 16.8157 61.6658 14.254 67.6565" stroke="white" stroke-width="0.803046" stroke-miterlimit="10"/>
</g>
<path id="Vector_6" d="M92.8883 59.8751L103.786 62.1317L107.504 65.9863L112.346 66.7331L113.888 71.3265L112.764 74.4423L109.455 75.9521L101.36 74.627L101.144 73.6393L104.966 70.9732L102.324 66.0987L95.0886 65.1029L91.234 61.8024L92.8883 59.8751Z" fill="white" stroke="white" stroke-width="0.803046" stroke-miterlimit="10"/>
<path id="Vector_7" d="M180.749 160.489L172.109 159.027L161.677 157.702L153.992 159.404L146.476 159.517L138.935 163.01L134.526 164.247L131.804 164.849L127.259 168.977L122.746 172.06L115.117 169.33L115.309 162.006L110.708 161.203L105.753 162.303L104.516 160.24L104.019 155.67L101.73 153.574L98.3731 154.843L97.9314 157.541L93.7716 158.722L89.0658 155.084L86.2551 149.471L88.4314 141.705L95.7311 140.605L98.1001 141.898L101.071 141.24L104.292 138.188L107.737 138.461L113.904 145.15L115.582 144.516L113.824 138.927L111.68 136.285L111.133 131.466L119.421 125.468L118.626 116.024L121.878 111.92L123.838 105.504L126.207 104.46L131.081 99.4812L130.888 97.4414L126.978 98.5737L125.797 96.7588L123.075 97.3611L119.084 99.2884L120.352 95.6265L128.471 91.2259L129.957 88.5517L134.639 93.2335L137.361 94.9681L140.613 93.2094L138.413 90.3184L132.382 87.7567L124.946 82.3843L117.815 79.5496L111.647 79.8788L108.018 77.5661L103.834 77.4536L103.561 78.5538L104.661 85.8535L106.203 88.11L105.737 96.534L99.8989 93.6671L99.8748 90.0293L94.125 88.7043L91.2902 86.4718L91.1537 79.9993L97.1846 73.1975L96.3574 67.1425L93.6833 67.9938L91.4508 66.1467L89.8849 62.5973L88.0941 62.7338L87.9817 66.9177L85.3638 68.0178L82.1998 59.618L79.9432 58.823L76.1448 58.1083L72.6194 60.9751L78.6182 64.5808L80.5455 68.5719L70.138 63.8661L62.4609 58.5499L60.4774 51.973L53.5953 51.4189L49.3552 55.7393C49.3552 55.7393 47.2111 57.779 46.0788 58.5499C44.9465 59.3209 40.3531 60.8627 40.3531 60.8627L40.2968 65.2955L34.6514 66.8052L35.7516 69.4232L45.2516 68.8771L51.1139 73.0369L53.0412 81.7098L52.0213 89.9972L54.3341 98.0678L50.094 111.752L52.6236 130.174L57.1608 140.083L62.1397 147.294L65.9702 146.965L63.8502 143.279L61.2081 140.75L58.7589 135.57L60.8789 134.582L66.3316 142.733L70.5717 150.113L72.0011 156.554L77.9757 161.211L87.7729 165.532L101.425 166.142L106.219 168.977L110.073 172.277L115.141 174.012L120.923 174.285L126.319 172.823C126.319 172.823 126.624 175.353 126.897 176.598C127.17 177.834 124.641 182.821 124.641 182.821L123.019 188.378L126.215 193.389L132.165 194.409L141.609 200.633L145.407 201.347L146.235 205.066L147.054 206.704C166.062 199.147 182.002 186.475 193.59 170.695L193.317 168.872L197.308 155.245L193.59 153.727L180.79 160.472L180.749 160.489Z" fill="white" stroke="white" stroke-width="0.803046" stroke-miterlimit="10"/>
<path id="Vector_8" d="M184.781 56.8878L181.006 52.7842L176.325 48.1025L173.683 40.8911L178.308 40.6422L178.003 38.1126L174.727 38.5784L177.176 36.7314L179.762 34.3383L179.208 31.8569L175.353 28.5563L173.53 23.3687C149.206 4.208 116.787 -4.27217 84.1913 2.97131C69.3751 6.2638 55.9643 12.4874 44.4325 20.8873L51.0416 23.6658L48.5602 28.8936L44.0712 30.9334L45.0589 37.7352L43.244 38.9156L41.3729 42.1921L42.6096 46.6008L46.93 46.1591L46.135 50.7606L50.351 49.829L55.4985 39.0682L55.362 34.9406L62.1879 32.9008L63.2639 29.5441L70.2826 27.2072L70.0898 22.8306L75.2374 21.4253C75.2374 21.4253 78.5138 18.6146 79.2606 18.454C80.0074 18.2854 83.7496 18.7592 83.7496 18.7592L88.1262 20.9033L93.33 19.7469L97.1846 16.0288L102.991 15.2579C102.991 15.2579 104.701 15.9164 105.938 15.6434C107.174 15.3703 110.507 12.8086 110.507 12.8086L118.682 15.6755L122.151 17.2414L122.978 20.9595L126.809 20.6303L127.556 18.1248L131.105 18.8957L131.298 20.9354L124.303 24.5652L129.724 29.0783L139.746 32.0496L144.564 36.1772L150.129 35.4625L150.82 32.7081L152.691 31.7685L145.15 28.2432L141.079 28.6286L144.082 26.9262L140.172 23.3767L144.331 22.1962L150.443 23.9629L153.004 29.6324L156.441 32.2504L160.264 38.9397L166.6 41.6942L168.415 49.8692L174.935 52.3185L175.297 55.097L175.265 58.4859L177.746 62.6135L178.734 64.7336L183.11 64.5408L184.154 59.8912L184.789 56.8878H184.781Z" fill="white" stroke="white" stroke-width="0.803046" stroke-miterlimit="10"/>
<path id="Vector_9" d="M182.46 31.2063L182.773 32.6277L182.412 36.8678L183.93 40.1683L186.877 40.5537L187.921 45.2596L184.668 44.6814L186.893 58.2288L185.126 64.34L188.651 70.8366L192.53 73.0932L195.501 86.4719L201.034 96.1647L206.262 103.32L212.293 103.545L213.176 98.1482L213.843 97.3371C213.425 92.9685 212.743 88.5759 211.763 84.1752C207.122 63.2719 196.65 45.1713 182.444 31.1983L182.46 31.2063Z" fill="white" stroke="white" stroke-width="0.803046" stroke-miterlimit="10"/>
<path id="Vector_10" d="M124.882 42.3687L106.926 38.8112L99.7945 40.6582L99.1119 45.7495L95.4179 43.1878L90.2463 45.6371L91.5633 53.9245L96.7429 56.1569L98.9192 50.7364L103.456 53.6274L112.627 58.6062L115.711 65.4642L123.966 72.2098L133.988 68.1625L132.912 64.5006L129.748 60.7905L127.05 50.9853L128.592 46.2233L124.882 42.3687Z" fill="white" stroke="white" stroke-width="0.803046" stroke-miterlimit="10"/>
<path id="Vector_11" d="M139.473 44.8501L135.53 44.6815L132.92 48.1266L136.245 54.9203L139.465 54.2056L139.473 44.8501Z" fill="white" stroke="white" stroke-width="0.803046" stroke-miterlimit="10"/>
<path id="Vector_12" d="M163.556 44.4406L154.145 41.8468L151.752 39.2609L149.929 40.4414L152.771 45.0108L155.686 51.13L159.734 51.7885L160.256 50.6321L157.196 47.4119L164.191 48.4558L163.556 44.4406Z" fill="white" stroke="white" stroke-width="0.803046" stroke-miterlimit="10"/>
<path id="Vector_13" d="M111.069 149.961L110.298 151.165L118.224 151.752L121.975 154.554L126.793 154.008L127.917 150.9L121.999 151.173L111.069 149.961Z" fill="white" stroke="white" stroke-width="0.803046" stroke-miterlimit="10"/>
<path id="Vector_14" d="M134.165 149.768L129.298 152.41L130.479 154.225L136.919 152.795L137.722 150.539L135.546 151.286L134.165 149.768Z" fill="white" stroke="white" stroke-width="0.803046" stroke-miterlimit="10"/>
</g>
<defs>
<clipPath id="clip0_1_48">
<rect width="214.742" height="214.742" fill="white"/>
</clipPath>
</defs>
</svg>
