<svg width="429" height="437" viewBox="0 0 429 437" fill="none" xmlns="http://www.w3.org/2000/svg">
<g clip-path="url(#clip0_37_10)">
<path d="M107.375 214.325C166.442 214.325 214.325 166.442 214.325 107.375C214.325 48.3086 166.442 0.425582 107.375 0.425582C48.3086 0.425582 0.425598 48.3086 0.425598 107.375C0.425598 166.442 48.3086 214.325 107.375 214.325Z" fill="#1F3262" stroke="white" stroke-width="0.803046" stroke-miterlimit="10"/>
<path d="M85.9017 206.318C91.5873 207.555 97.4174 208.31 103.336 208.543" stroke="white" stroke-width="0.803046" stroke-miterlimit="10"/>
<path d="M72.788 202.52C75.687 203.58 78.6422 204.504 81.6376 205.291" stroke="white" stroke-width="0.803046" stroke-miterlimit="10"/>
<path d="M9.98988 79.6702C5.51691 95.3296 4.77008 112.298 8.55243 129.322C16.0288 162.986 39.4616 188.973 69.1261 201.115" stroke="white" stroke-width="0.803046" stroke-miterlimit="10"/>
<path d="M23.6015 50.5436C19.9476 55.932 16.8157 61.6658 14.254 67.6565" stroke="white" stroke-width="0.803046" stroke-miterlimit="10"/>
<path d="M92.8883 59.8751L103.786 62.1317L107.504 65.9863L112.346 66.7331L113.888 71.3265L112.764 74.4423L109.455 75.9521L101.36 74.627L101.144 73.6393L104.966 70.9732L102.324 66.0987L95.0886 65.1029L91.234 61.8024L92.8883 59.8751Z" fill="white" stroke="white" stroke-width="0.803046" stroke-miterlimit="10"/>
<path d="M180.749 160.489L172.109 159.027L161.677 157.702L153.992 159.404L146.476 159.517L138.935 163.01L134.526 164.247L131.804 164.849L127.259 168.977L122.746 172.06L115.117 169.33L115.309 162.006L110.708 161.203L105.753 162.303L104.516 160.24L104.019 155.67L101.73 153.574L98.3731 154.843L97.9314 157.541L93.7716 158.722L89.0658 155.084L86.2551 149.471L88.4314 141.705L95.7311 140.605L98.1001 141.898L101.071 141.24L104.292 138.188L107.737 138.461L113.904 145.15L115.582 144.516L113.824 138.927L111.68 136.285L111.133 131.466L119.421 125.468L118.626 116.024L121.878 111.92L123.838 105.504L126.207 104.46L131.081 99.4812L130.888 97.4414L126.978 98.5737L125.797 96.7588L123.075 97.3611L119.084 99.2884L120.352 95.6265L128.471 91.2259L129.957 88.5517L134.639 93.2335L137.361 94.9681L140.613 93.2094L138.413 90.3184L132.382 87.7567L124.946 82.3843L117.815 79.5496L111.647 79.8788L108.018 77.5661L103.834 77.4536L103.561 78.5538L104.661 85.8535L106.203 88.11L105.737 96.534L99.8989 93.6671L99.8748 90.0293L94.125 88.7043L91.2902 86.4718L91.1537 79.9993L97.1846 73.1975L96.3574 67.1425L93.6833 67.9938L91.4508 66.1467L89.8849 62.5973L88.0941 62.7338L87.9817 66.9177L85.3638 68.0178L82.1998 59.618L79.9432 58.823L76.1448 58.1083L72.6194 60.9751L78.6182 64.5808L80.5455 68.5719L70.138 63.8661L62.4609 58.5499L60.4774 51.973L53.5953 51.4189L49.3552 55.7393C49.3552 55.7393 47.2111 57.779 46.0788 58.5499C44.9465 59.3209 40.3531 60.8627 40.3531 60.8627L40.2968 65.2955L34.6514 66.8052L35.7516 69.4232L45.2516 68.8771L51.1139 73.0369L53.0412 81.7098L52.0213 89.9972L54.3341 98.0678L50.094 111.752L52.6236 130.174L57.1608 140.083L62.1397 147.294L65.9702 146.965L63.8502 143.279L61.2081 140.75L58.7589 135.57L60.8789 134.582L66.3316 142.733L70.5717 150.113L72.0011 156.554L77.9757 161.211L87.7729 165.532L101.425 166.142L106.219 168.977L110.073 172.277L115.141 174.012L120.923 174.285L126.319 172.823C126.319 172.823 126.624 175.353 126.897 176.598C127.17 177.834 124.641 182.821 124.641 182.821L123.019 188.378L126.215 193.389L132.165 194.409L141.609 200.633L145.407 201.347L146.235 205.066L147.054 206.704C166.062 199.147 182.002 186.475 193.59 170.695L193.317 168.872L197.308 155.245L193.59 153.727L180.79 160.472L180.749 160.489Z" fill="white" stroke="white" stroke-width="0.803046" stroke-miterlimit="10"/>
<path d="M184.781 56.8878L181.006 52.7842L176.325 48.1025L173.683 40.8911L178.308 40.6422L178.003 38.1126L174.727 38.5784L177.176 36.7314L179.762 34.3383L179.208 31.8569L175.353 28.5563L173.53 23.3687C149.206 4.208 116.787 -4.27217 84.1913 2.97131C69.3751 6.2638 55.9643 12.4874 44.4325 20.8873L51.0416 23.6658L48.5602 28.8936L44.0712 30.9334L45.0589 37.7352L43.244 38.9156L41.3729 42.1921L42.6096 46.6008L46.93 46.1591L46.135 50.7606L50.351 49.829L55.4985 39.0682L55.362 34.9406L62.1879 32.9008L63.2639 29.5441L70.2826 27.2072L70.0898 22.8306L75.2374 21.4253C75.2374 21.4253 78.5138 18.6146 79.2606 18.454C80.0074 18.2854 83.7496 18.7592 83.7496 18.7592L88.1262 20.9033L93.33 19.7469L97.1846 16.0288L102.991 15.2579C102.991 15.2579 104.701 15.9164 105.938 15.6434C107.174 15.3703 110.507 12.8086 110.507 12.8086L118.682 15.6755L122.151 17.2414L122.978 20.9595L126.809 20.6303L127.556 18.1248L131.105 18.8957L131.298 20.9354L124.303 24.5652L129.724 29.0783L139.746 32.0496L144.564 36.1772L150.129 35.4625L150.82 32.7081L152.691 31.7685L145.15 28.2432L141.079 28.6286L144.082 26.9262L140.172 23.3767L144.331 22.1962L150.443 23.9629L153.004 29.6324L156.441 32.2504L160.264 38.9397L166.6 41.6942L168.415 49.8692L174.935 52.3185L175.297 55.097L175.265 58.4859L177.746 62.6135L178.734 64.7336L183.11 64.5408L184.154 59.8912L184.789 56.8878H184.781Z" fill="white" stroke="white" stroke-width="0.803046" stroke-miterlimit="10"/>
<path d="M182.46 31.2063L182.773 32.6277L182.412 36.8678L183.93 40.1683L186.877 40.5537L187.921 45.2596L184.668 44.6814L186.893 58.2288L185.126 64.34L188.651 70.8366L192.53 73.0932L195.501 86.4719L201.034 96.1647L206.262 103.32L212.293 103.545L213.176 98.1482L213.843 97.3371C213.425 92.9685 212.743 88.5759 211.763 84.1752C207.122 63.2719 196.65 45.1713 182.444 31.1983L182.46 31.2063Z" fill="white" stroke="white" stroke-width="0.803046" stroke-miterlimit="10"/>
<path d="M124.882 42.3687L106.926 38.8112L99.7945 40.6582L99.1119 45.7495L95.4179 43.1878L90.2463 45.6371L91.5633 53.9245L96.7429 56.1569L98.9192 50.7364L103.456 53.6274L112.627 58.6062L115.711 65.4642L123.966 72.2098L133.988 68.1625L132.912 64.5006L129.748 60.7905L127.05 50.9853L128.592 46.2233L124.882 42.3687Z" fill="white" stroke="white" stroke-width="0.803046" stroke-miterlimit="10"/>
<path d="M139.473 44.8501L135.53 44.6815L132.92 48.1266L136.245 54.9203L139.465 54.2056L139.473 44.8501Z" fill="white" stroke="white" stroke-width="0.803046" stroke-miterlimit="10"/>
<path d="M163.556 44.4406L154.145 41.8468L151.752 39.2609L149.929 40.4414L152.771 45.0108L155.686 51.13L159.734 51.7885L160.256 50.6321L157.196 47.4119L164.191 48.4558L163.556 44.4406Z" fill="white" stroke="white" stroke-width="0.803046" stroke-miterlimit="10"/>
<path d="M111.069 149.961L110.298 151.165L118.224 151.752L121.975 154.554L126.793 154.008L127.917 150.9L121.999 151.173L111.069 149.961Z" fill="white" stroke="white" stroke-width="0.803046" stroke-miterlimit="10"/>
<path d="M134.165 149.768L129.298 152.41L130.479 154.225L136.919 152.795L137.722 150.539L135.546 151.286L134.165 149.768Z" fill="white" stroke="white" stroke-width="0.803046" stroke-miterlimit="10"/>
</g>
<g clip-path="url(#clip1_37_10)">
<path d="M425.815 247.396L384.563 270.966C382.804 271.969 381.378 274.387 381.378 276.352V322.618C381.378 324.583 382.804 325.37 384.563 324.367L425.815 300.797C427.575 299.795 429 297.377 429 295.411V249.146C429 247.18 427.575 246.394 425.815 247.396ZM399.316 289.238C399.316 285.601 401.951 281.139 405.194 279.291C408.438 277.443 411.072 278.888 411.072 282.525C411.072 286.162 408.438 290.624 405.194 292.472C401.951 294.32 399.316 292.875 399.316 289.238ZM410.177 275.419C408.782 275.065 407.052 275.35 405.184 276.421C403.268 277.512 401.508 279.252 400.093 281.267L385.605 273.246L424.744 250.876L410.168 275.419H410.177ZM398.314 284.353C397.331 286.457 396.751 288.668 396.751 290.713C396.751 292.757 397.351 294.349 398.363 295.332L383.944 319.61V276.392L398.314 284.353ZM400.162 296.345C401.567 296.718 403.307 296.433 405.194 295.352C407.003 294.32 408.674 292.718 410.04 290.85L424.351 298.772L385.566 320.937L400.172 296.345H400.162ZM411.888 287.803C412.979 285.592 413.627 283.233 413.627 281.07C413.627 278.908 413.018 277.404 411.986 276.421L426.435 252.094V295.853L411.888 287.793V287.803Z" fill="white"/>
<path d="M380.612 322.618V276.352C380.612 274.387 379.187 271.969 377.427 270.966L336.185 247.396C334.425 246.394 333 247.18 333 249.146V295.411C333 297.377 334.425 299.795 336.185 300.797L377.437 324.367C379.196 325.37 380.622 324.583 380.622 322.618M356.806 279.291C360.049 281.139 362.684 285.601 362.684 289.238C362.684 292.875 360.049 294.32 356.806 292.472C353.562 290.624 350.928 286.162 350.928 282.525C350.928 278.888 353.562 277.443 356.806 279.291ZM376.366 320.888L337.226 298.527L351.714 290.506C353.13 292.521 354.889 294.261 356.806 295.352C358.673 296.423 360.393 296.708 361.799 296.354L376.375 320.897L376.366 320.888ZM335.565 295.381V252.173L349.985 276.451C348.982 277.434 348.373 278.996 348.373 281.07C348.373 283.144 348.952 285.316 349.935 287.42L335.565 295.381ZM337.177 250.836L375.963 273.001L361.661 280.923C360.285 279.055 358.614 277.453 356.816 276.421C354.929 275.34 353.189 275.055 351.783 275.428L337.168 250.836H337.177ZM378.056 275.91V319.669L363.608 295.342C364.63 294.359 365.249 292.786 365.249 290.703C365.249 288.619 364.59 286.181 363.509 283.97L378.056 275.91Z" fill="white"/>
<path d="M425.815 302.38L384.563 325.95C382.804 326.952 381.378 329.37 381.378 331.336V377.601C381.378 379.567 382.804 380.353 384.563 379.351L425.815 355.781C427.575 354.778 429 352.36 429 350.395V304.129C429 302.164 427.575 301.377 425.815 302.38ZM399.316 344.222C399.316 340.585 401.951 336.123 405.194 334.275C408.438 332.427 411.072 333.872 411.072 337.509C411.072 341.145 408.438 345.608 405.194 347.456C401.951 349.304 399.316 347.859 399.316 344.222ZM410.177 330.402C408.782 330.048 407.052 330.334 405.184 331.405C403.268 332.496 401.508 334.236 400.093 336.251L385.605 328.23L424.744 305.859L410.168 330.402H410.177ZM398.314 339.337C397.331 341.44 396.751 343.652 396.751 345.696C396.751 347.741 397.351 349.333 398.363 350.316L383.944 374.594V331.385L398.314 339.347V339.337ZM400.162 351.328C401.567 351.702 403.307 351.417 405.194 350.336C407.003 349.304 408.674 347.701 410.04 345.834L424.351 353.756L385.566 375.92L400.172 351.328H400.162ZM411.888 342.787C412.979 340.575 413.627 338.216 413.627 336.054C413.627 333.892 413.018 332.388 411.986 331.405L426.435 307.078V350.837L411.888 342.777V342.787Z" fill="white"/>
<path d="M380.612 377.611V331.346C380.612 329.38 379.187 326.962 377.427 325.96L336.185 302.38C334.425 301.377 333 302.164 333 304.129V350.395C333 352.36 334.425 354.778 336.185 355.781L377.437 379.351C379.196 380.353 380.622 379.567 380.622 377.601M356.816 334.275C360.059 336.123 362.693 340.585 362.693 344.222C362.693 347.859 360.059 349.304 356.816 347.456C353.572 345.608 350.938 341.145 350.938 337.509C350.938 333.872 353.572 332.427 356.816 334.275ZM376.375 375.871L337.226 353.51L351.714 345.49C353.13 347.505 354.889 349.245 356.806 350.336C358.673 351.407 360.393 351.692 361.799 351.338L376.375 375.881V375.871ZM335.565 350.365V307.157L349.985 331.434C348.982 332.417 348.373 333.98 348.373 336.054C348.373 338.128 348.952 340.3 349.935 342.404L335.565 350.365ZM337.177 305.82L375.963 327.984L361.661 335.907C360.285 334.039 358.614 332.437 356.816 331.405C354.929 330.324 353.189 330.039 351.783 330.412L337.177 305.82ZM378.056 330.894V374.653L363.608 350.326C364.63 349.343 365.249 347.77 365.249 345.686C365.249 343.603 364.59 341.165 363.509 338.954L378.056 330.894Z" fill="white"/>
<path d="M425.815 359.172L384.563 382.742C382.804 383.744 381.378 386.162 381.378 388.128V434.393C381.378 436.359 382.804 437.145 384.563 436.143L425.815 412.573C427.575 411.57 429 409.152 429 407.186V360.921C429 358.955 427.575 358.169 425.815 359.172ZM399.316 401.014C399.316 397.377 401.951 392.915 405.194 391.067C408.438 389.219 411.072 390.664 411.072 394.3C411.072 397.937 408.438 402.4 405.194 404.247C401.951 406.095 399.316 404.65 399.316 401.014ZM410.177 387.194C408.782 386.84 407.052 387.125 405.184 388.197C403.268 389.288 401.508 391.027 400.093 393.042L385.605 385.022L424.744 362.651L410.168 387.194H410.177ZM398.314 396.129C397.331 398.232 396.751 400.444 396.751 402.478C396.751 404.513 397.351 406.115 398.363 407.098L383.944 431.376V388.167L398.314 396.129ZM400.162 408.12C401.567 408.494 403.307 408.208 405.194 407.127C407.003 406.095 408.674 404.493 410.04 402.626L424.351 410.548L385.566 432.712L400.172 408.12H400.162ZM411.888 399.579C412.979 397.367 413.627 395.008 413.627 392.846C413.627 390.683 413.018 389.18 411.986 388.197L426.435 363.87V407.629L411.888 399.569V399.579Z" fill="white"/>
<path d="M380.612 434.393V388.128C380.612 386.162 379.187 383.744 377.427 382.742L336.185 359.172C334.425 358.169 333 358.955 333 360.921V407.186C333 409.152 334.425 411.57 336.185 412.573L377.437 436.143C379.196 437.145 380.622 436.359 380.622 434.393M356.816 391.067C360.059 392.915 362.693 397.377 362.693 401.014C362.693 404.65 360.059 406.095 356.816 404.247C353.572 402.4 350.938 397.937 350.938 394.3C350.938 390.664 353.572 389.219 356.816 391.067ZM376.375 432.663L337.226 410.302L351.714 402.282C353.13 404.297 354.889 406.036 356.806 407.127C358.673 408.199 360.393 408.484 361.799 408.13L376.375 432.673V432.663ZM335.565 407.157V363.948L349.985 388.226C348.982 389.209 348.373 390.772 348.373 392.846C348.373 394.92 348.952 397.092 349.935 399.195L335.565 407.157ZM337.177 362.622L375.963 384.786L361.661 392.708C360.285 390.841 358.614 389.238 356.816 388.206C354.929 387.125 353.189 386.84 351.783 387.214L337.177 362.622ZM378.056 387.695V431.454L363.608 407.127C364.63 406.144 365.249 404.572 365.249 402.488C365.249 400.404 364.59 397.967 363.509 395.755L378.056 387.695Z" fill="white"/>
<path d="M425.353 242.334L384.455 219.737C383.541 219.226 382.332 218.99 381.133 219H381.054C379.855 218.98 378.646 219.226 377.742 219.727L336.843 242.334C335.103 243.297 335.113 244.84 336.863 245.784L378.046 269.03C378.882 269.482 379.963 269.708 381.064 269.718H381.152C382.243 269.708 383.334 269.472 384.17 269.03L425.353 245.784C427.103 244.84 427.113 243.297 425.373 242.334M379.246 221.683L379.226 237.41C376.808 237.626 374.478 238.235 372.631 239.258C370.734 240.309 369.633 241.617 369.308 242.973L340.431 243.13L379.246 221.683ZM379.196 266.877L340.735 245.096L369.377 244.939C369.78 246.217 370.881 247.435 372.69 248.399C374.528 249.381 376.828 249.971 379.216 250.158L379.196 266.877ZM381.113 248.281H381.093C378.98 248.29 376.857 247.868 375.235 247.003C372.002 245.273 371.982 242.413 375.196 240.634C376.808 239.749 378.921 239.297 381.034 239.277C383.148 239.287 385.398 239.739 387.01 240.634C390.225 242.413 390.205 245.263 386.971 247.003C385.349 247.868 383.236 248.3 381.113 248.281ZM383 266.877L382.981 250.158C385.369 249.961 387.659 249.381 389.507 248.399C391.316 247.426 392.416 246.207 392.819 244.939L421.461 245.096L383 266.887V266.877ZM392.888 242.973C392.564 241.617 391.463 240.309 389.566 239.258C387.708 238.235 385.389 237.626 382.971 237.41L382.951 221.683L421.766 243.13L392.888 242.973Z" fill="white"/>
</g>
<defs>
<clipPath id="clip0_37_10">
<rect width="214.742" height="214.742" fill="white"/>
</clipPath>
<clipPath id="clip1_37_10">
<rect width="96" height="217.585" fill="white" transform="translate(333 219)"/>
</clipPath>
</defs>
</svg>
