<svg width="128" height="51" viewBox="0 0 128 51" fill="none" xmlns="http://www.w3.org/2000/svg">
<path d="M73.643 39.9802C69.5202 39.9802 66.1883 38.6753 63.6472 36.0654C61.1061 33.4556 59.8355 29.9542 59.8355 25.5614C59.8355 21.1169 61.0801 17.6026 63.5694 15.0186C66.0586 12.4346 69.4165 11.1426 73.643 11.1426C77.0657 11.1426 79.9698 12.047 82.3553 13.8558C84.7927 15.6904 86.2577 18.2874 86.7504 21.6466H80.0995C79.6846 20.0962 78.9067 18.9076 77.7658 18.0807C76.6508 17.2279 75.2766 16.8016 73.643 16.8016C71.4131 16.8016 69.6887 17.5639 68.4701 19.0884C67.2773 20.613 66.6809 22.7707 66.6809 25.5614C66.6809 28.3521 67.2773 30.5098 68.4701 32.0344C69.6887 33.5589 71.4131 34.3212 73.643 34.3212C75.3544 34.3212 76.8064 33.8302 77.9992 32.8483C79.1919 31.8664 79.9439 30.4969 80.255 28.7397H86.8282C86.4133 32.3057 85.0002 35.0706 82.5887 37.0344C80.1513 38.9983 77.1694 39.9802 73.643 39.9802Z" fill="#1A2441"/>
<path d="M97.1823 39.36H90.6091V11.7627H97.1823V39.36Z" fill="#1A2441"/>
<path d="M114.815 39.9802C110.692 39.9802 107.36 38.6753 104.819 36.0654C102.278 33.4556 101.007 29.9542 101.007 25.5614C101.007 21.1169 102.252 17.6026 104.741 15.0186C107.23 12.4346 110.588 11.1426 114.815 11.1426C118.237 11.1426 121.142 12.047 123.527 13.8558C125.965 15.6904 127.43 18.2874 127.922 21.6466H121.271C120.856 20.0962 120.078 18.9076 118.938 18.0807C117.823 17.2279 116.448 16.8016 114.815 16.8016C112.585 16.8016 110.861 17.5639 109.642 19.0884C108.449 20.613 107.853 22.7707 107.853 25.5614C107.853 28.3521 108.449 30.5098 109.642 32.0344C110.861 33.5589 112.585 34.3212 114.815 34.3212C116.526 34.3212 117.978 33.8302 119.171 32.8483C120.364 31.8664 121.116 30.4969 121.427 28.7397H128C127.585 32.3057 126.172 35.0706 123.76 37.0344C121.323 38.9983 118.341 39.9802 114.815 39.9802Z" fill="#1A2441"/>
<path d="M25.5858 0C11.5609 0 0.191101 11.3708 0.191101 25.3969C0.191101 39.423 11.5609 50.7938 25.5858 50.7938C39.6107 50.7938 50.9805 39.423 50.9805 25.3969C50.9805 11.3708 39.6107 0 25.5858 0ZM33.7386 42.42C24.3409 42.42 16.7169 34.7954 16.7169 25.3969C16.7169 15.9984 24.3409 8.37381 33.7386 8.37381C43.1363 8.37381 50.7602 15.9984 50.7602 25.3969C50.7602 34.7954 43.1363 42.42 33.7386 42.42Z" fill="#1A2441"/>
<path d="M34.014 8.28467C28.4724 8.28467 23.9883 12.7691 23.9883 18.3112C23.9883 23.8533 28.4724 28.3377 34.014 28.3377C39.5557 28.3377 44.0397 23.8533 44.0397 18.3112C44.0397 12.7801 39.5557 8.28467 34.014 8.28467ZM30.3783 24.5475C26.9079 24.5475 24.0985 21.7379 24.0985 18.2671C24.0985 14.7964 26.9079 11.9868 30.3783 11.9868C33.8488 11.9868 36.6582 14.7964 36.6582 18.2671C36.6582 21.7379 33.8488 24.5475 30.3783 24.5475Z" fill="#1A2441"/>
<path d="M30.1577 17.9365C28.3068 17.9365 26.7974 19.446 26.7974 21.2971C26.7974 23.1481 28.3068 24.6576 30.1577 24.6576C32.0086 24.6576 33.5179 23.1481 33.5179 21.2971C33.5179 19.435 32.0086 17.9365 30.1577 17.9365ZM31.3696 23.3354C30.2458 23.3354 29.3314 22.4209 29.3314 21.2971C29.3314 20.1732 30.2458 19.2587 31.3696 19.2587C32.4933 19.2587 33.4078 20.1732 33.4078 21.2971C33.4078 22.4209 32.4933 23.3354 31.3696 23.3354Z" fill="#1A2441"/>
</svg>
