<svg width="101" height="64" viewBox="0 0 101 64" fill="none" xmlns="http://www.w3.org/2000/svg">
<path d="M92.5709 12.5581L91.8832 13.2458L90.9563 12.3189L91.5019 11.7732L91.5991 8.26739H87.9962L87.4505 8.81307L86.5236 7.88616L87.2113 7.19846C87.7196 6.69016 87.7196 5.85295 87.2113 5.34465L82.2479 0.381227C81.7395 -0.127076 80.9023 -0.127076 80.394 0.381227L78.4954 2.27989C77.9796 2.78819 77.9796 3.62539 78.4954 4.1337L83.4588 9.09712C83.9671 9.60542 84.8043 9.60542 85.3126 9.09712L86.0003 8.40942L86.9272 9.33632L86.3367 9.92685L86.389 13.485L89.85 13.4326L90.4405 12.8421L91.3674 13.769L90.6797 14.4567C90.1714 14.9725 90.1714 15.8022 90.6797 16.3105L95.6431 21.274C96.1514 21.7823 96.9886 21.7823 97.4969 21.274L99.3956 19.3753C99.9039 18.867 99.9039 18.0298 99.3956 17.5215L94.4322 12.5581C93.9239 12.0498 93.0867 12.0498 92.5784 12.5581" fill="#1A2441"/>
<path d="M84.7968 54.4257H77.2844C73.0012 54.4257 69.5253 50.9498 69.5253 46.6666V30.0944L76.7088 30.0496V44.9473C76.7088 46.4946 78.3085 48.2288 79.8558 48.2288H84.7968L84.8492 48.2363H89.7902C91.3375 48.2289 92.9371 46.4872 92.9371 44.9473V30.0496L100.121 30.0944V46.6666C100.121 50.9498 96.6448 54.4257 92.3616 54.4257H84.8043H84.7968Z" fill="#1A2441"/>
<path d="M26.9625 30.1099H0.0523376L8.64116 35.2975H0.0523376V35.9404H22.0663C23.0755 35.9404 23.8902 36.7552 23.8902 37.7643C23.8902 38.7734 23.0755 39.5882 22.0663 39.5882H0.0523376V40.1339H8.64116L0.0523376 45.3216V54.2094H6.94432V44.9852H26.9699C29.0555 44.9852 30.7374 43.2958 30.7374 41.2178V33.8773C30.7374 31.7917 29.048 30.1099 26.9699 30.1099" fill="#1A2441"/>
<path d="M0 58.291H1.41278C1.79401 58.291 2.08554 58.3209 2.29484 58.3807C2.49666 58.4405 2.65364 58.5302 2.75829 58.6423C2.86294 58.7545 2.93021 58.889 2.96759 59.0535C3.00497 59.2179 3.01992 59.4646 3.01992 59.801V60.2719C3.01992 60.6158 2.98254 60.8699 2.91526 61.0269C2.84051 61.1839 2.71344 61.3035 2.52656 61.3932C2.33969 61.4754 2.08554 61.5202 1.77906 61.5202H1.40531V63.6955H0V58.2985V58.291ZM1.40531 59.2104V60.5859C1.44268 60.5859 1.48006 60.5859 1.50996 60.5859C1.63703 60.5859 1.72673 60.556 1.77906 60.4887C1.83138 60.4289 1.85381 60.2943 1.85381 60.0925V59.6515C1.85381 59.4646 1.82391 59.345 1.76411 59.2927C1.70431 59.2403 1.58471 59.2104 1.40531 59.2104Z" fill="#1A2441"/>
<path d="M3.42355 58.2913H4.41773C5.08301 58.2913 5.53151 58.3137 5.76324 58.3661C5.99497 58.4184 6.18932 58.5455 6.33882 58.7548C6.48832 58.9641 6.56307 59.3004 6.56307 59.7564C6.56307 60.175 6.51074 60.4591 6.40609 60.6011C6.30144 60.7431 6.09962 60.8328 5.79314 60.8627C6.06972 60.93 6.25659 61.0272 6.35377 61.1393C6.45094 61.2514 6.51074 61.3636 6.53317 61.4607C6.55559 61.5579 6.57054 61.827 6.57054 62.2606V63.6808H5.26989V61.8868C5.26989 61.5953 5.24746 61.4159 5.20261 61.3486C5.15776 61.2813 5.03816 61.244 4.84381 61.244V63.6733H3.4385V58.2764L3.42355 58.2913ZM4.82886 59.2107V60.4142C4.98584 60.4142 5.09796 60.3918 5.15776 60.3469C5.21756 60.3021 5.25494 60.1601 5.25494 59.9209V59.6219C5.25494 59.4499 5.22504 59.3378 5.16524 59.2855C5.10544 59.2332 4.99331 59.2033 4.82886 59.2033" fill="#1A2441"/>
<path d="M10.3081 61.4525C10.3081 61.9982 10.2931 62.3794 10.2707 62.6037C10.2483 62.8279 10.166 63.0372 10.0315 63.2241C9.89694 63.411 9.71754 63.553 9.48582 63.6502C9.25409 63.7474 8.99247 63.7997 8.68599 63.7997C8.37951 63.7997 8.14031 63.7548 7.90858 63.6577C7.67686 63.5605 7.48998 63.4185 7.35543 63.2316C7.21341 63.0447 7.13118 62.8354 7.10876 62.6186C7.07886 62.3944 7.07138 62.0057 7.07138 61.4525V60.5331C7.07138 59.9874 7.08633 59.6062 7.10876 59.3819C7.13866 59.1577 7.21341 58.9484 7.34796 58.7615C7.48251 58.5746 7.66191 58.4326 7.89363 58.328C8.12536 58.2308 8.38699 58.1785 8.69346 58.1785C8.98499 58.1785 9.23914 58.2233 9.47087 58.3205C9.70259 58.4177 9.88199 58.5522 10.024 58.7466C10.166 58.9334 10.2483 59.1427 10.2707 59.3595C10.3006 59.5838 10.3081 59.9725 10.3081 60.5256V61.4451V61.4525ZM8.90276 59.681C8.90276 59.4268 8.88781 59.2698 8.85791 59.2025C8.82801 59.1353 8.77569 59.0979 8.68599 59.0979C8.61124 59.0979 8.55891 59.1278 8.51406 59.1801C8.47669 59.2399 8.45426 59.4044 8.45426 59.681V62.2C8.45426 62.514 8.46921 62.7083 8.49164 62.7831C8.51406 62.8578 8.57386 62.8952 8.67104 62.8952C8.76821 62.8952 8.82801 62.8504 8.85791 62.7681C8.88781 62.6859 8.89529 62.4841 8.89529 62.1627V59.681H8.90276Z" fill="#1A2441"/>
<path d="M14.0531 60.2793H12.6478V59.7934C12.6478 59.4869 12.6328 59.2926 12.6104 59.2103C12.5805 59.1356 12.5207 59.0907 12.4235 59.0907C12.3338 59.0907 12.2815 59.1281 12.2441 59.1879C12.2142 59.2552 12.1993 59.4271 12.1993 59.7037V62.29C12.1993 62.5292 12.2142 62.6937 12.2441 62.7684C12.274 62.8432 12.3338 62.8806 12.431 62.8806C12.5357 62.8806 12.6029 62.8357 12.6403 62.7535C12.6777 62.6638 12.6926 62.4993 12.6926 62.2452V61.6023H12.4086V60.7801H14.0531V63.6804H13.171L13.044 63.2917C12.9468 63.4561 12.8272 63.5832 12.6852 63.6654C12.5357 63.7477 12.3712 63.7925 12.1694 63.7925C11.9302 63.7925 11.7134 63.7327 11.5041 63.6206C11.3023 63.5085 11.1453 63.3664 11.0332 63.1945C10.9285 63.0226 10.8613 62.8507 10.8314 62.6638C10.8015 62.4769 10.794 62.2003 10.794 61.8266V60.2195C10.794 59.7037 10.8239 59.3299 10.8762 59.0982C10.9285 58.8665 11.093 58.6497 11.3546 58.4553C11.6162 58.261 11.9601 58.1638 12.3787 58.1638C12.7973 58.1638 13.1337 58.246 13.4028 58.418C13.6719 58.5899 13.8513 58.7842 13.9335 59.016C14.0157 59.2477 14.0606 59.5841 14.0606 60.0251V60.2568L14.0531 60.2793Z" fill="#1A2441"/>
<path d="M14.5912 58.2913H15.5854C16.2507 58.2913 16.6992 58.3137 16.9309 58.3661C17.1627 58.4184 17.357 58.5455 17.5065 58.7548C17.656 58.9641 17.7308 59.3004 17.7308 59.7564C17.7308 60.175 17.6784 60.4591 17.5738 60.6011C17.4691 60.7431 17.2673 60.8328 16.9608 60.8627C17.2374 60.93 17.4243 61.0272 17.5215 61.1393C17.6186 61.2514 17.6784 61.3636 17.7009 61.4607C17.7233 61.5579 17.7382 61.827 17.7382 62.2606V63.6808H16.4376V61.8868C16.4376 61.5953 16.4152 61.4159 16.3703 61.3486C16.3255 61.2813 16.2059 61.244 16.0115 61.244V63.6733H14.6062V58.2764L14.5912 58.2913ZM15.9966 59.2107V60.4142C16.1535 60.4142 16.2657 60.3918 16.3255 60.3469C16.3853 60.3021 16.4226 60.1601 16.4226 59.9209V59.6219C16.4226 59.4499 16.3927 59.3378 16.3329 59.2855C16.2731 59.2332 16.161 59.2033 15.9966 59.2033" fill="#1A2441"/>
<path d="M20.6984 58.291L21.4982 63.688H20.063L19.9882 62.7162H19.4874L19.4052 63.688H17.955L18.6726 58.291H20.6984ZM19.9583 61.7594C19.8836 61.1465 19.8163 60.3915 19.7416 59.4945C19.5995 60.5261 19.5098 61.281 19.4724 61.7594H19.9583Z" fill="#1A2441"/>
<path d="M26.0654 58.291V63.688H24.8395V60.0476L24.3537 63.688H23.4866L22.9708 60.1299V63.688H21.7449V58.291H23.5613C23.6136 58.6124 23.6734 59.0011 23.7258 59.4422L23.9276 60.8176L24.249 58.2985H26.0729L26.0654 58.291Z" fill="#1A2441"/>
<path d="M29.0555 58.291L29.8553 63.688H28.4201L28.3453 62.7162H27.8445L27.7623 63.688H26.3121L27.0297 58.291H29.0555ZM28.3154 61.7594C28.2407 61.1465 28.1734 60.3915 28.0987 59.4945C27.9566 60.5261 27.8669 61.281 27.8296 61.7594H28.3154Z" fill="#1A2441"/>
<path d="M31.298 58.291H33.6377V59.3749H32.7033V60.399H33.5779V61.4231H32.7033V62.6116H33.7349V63.688H31.298V58.291Z" fill="#1A2441"/>
<path d="M37.1061 59.9276H35.8054V59.5315C35.8054 59.3446 35.7905 59.225 35.7531 59.1726C35.7232 59.1203 35.6634 59.0979 35.5886 59.0979C35.5064 59.0979 35.4391 59.1353 35.3943 59.2025C35.3494 59.2698 35.327 59.3745 35.327 59.5165C35.327 59.6959 35.3494 59.8305 35.4018 59.9202C35.4466 60.0099 35.5812 60.122 35.7979 60.2491C36.4184 60.6228 36.8146 60.9218 36.979 61.161C37.1435 61.4002 37.2257 61.7814 37.2257 62.3122C37.2257 62.6934 37.1808 62.9774 37.0911 63.1643C37.0014 63.3437 36.8295 63.5007 36.5679 63.6203C36.3062 63.7474 36.0072 63.8072 35.6709 63.8072C35.2971 63.8072 34.9757 63.7324 34.7066 63.5904C34.445 63.4484 34.2656 63.269 34.1833 63.0447C34.1011 62.8205 34.0563 62.514 34.0563 62.1103V61.759H35.3569V62.4168C35.3569 62.6186 35.3719 62.7532 35.4092 62.8055C35.4466 62.8653 35.5139 62.8877 35.6036 62.8877C35.6933 62.8877 35.768 62.8504 35.8129 62.7756C35.8577 62.7009 35.8802 62.5962 35.8802 62.4467C35.8802 62.1253 35.8353 61.9235 35.7531 61.8263C35.6634 61.7291 35.4466 61.5647 35.0953 61.3404C34.744 61.1087 34.5122 60.9442 34.4001 60.8396C34.288 60.7349 34.1908 60.5929 34.1161 60.406C34.0413 60.2192 34.0039 59.9874 34.0039 59.6959C34.0039 59.2848 34.0563 58.9783 34.1609 58.7914C34.2656 58.5971 34.4375 58.4476 34.6692 58.3429C34.9084 58.2383 35.1925 58.1785 35.5214 58.1785C35.8876 58.1785 36.1941 58.2383 36.4557 58.3579C36.7099 58.4775 36.8818 58.627 36.9641 58.8064C37.0463 58.9858 37.0911 59.2923 37.0911 59.7183V59.9351L37.1061 59.9276Z" fill="#1A2441"/>
<path d="M37.6667 58.291H39.0795C39.4607 58.291 39.7523 58.3209 39.9616 58.3807C40.1634 58.4405 40.3204 58.5302 40.425 58.6423C40.5297 58.7545 40.5969 58.889 40.6343 59.0535C40.6717 59.2179 40.6866 59.4646 40.6866 59.801V60.2719C40.6866 60.6158 40.6493 60.8699 40.582 61.0269C40.5072 61.1839 40.3802 61.3035 40.1933 61.3932C40.0064 61.4754 39.7523 61.5202 39.4458 61.5202H39.072V63.6955H37.6667V58.2985V58.291ZM39.072 59.2104V60.5859C39.1094 60.5859 39.1468 60.5859 39.1767 60.5859C39.3038 60.5859 39.3935 60.556 39.4458 60.4887C39.4981 60.4289 39.5205 60.2943 39.5205 60.0925V59.6515C39.5205 59.4646 39.4906 59.345 39.4308 59.2927C39.371 59.2403 39.2514 59.2104 39.072 59.2104Z" fill="#1A2441"/>
<path d="M43.3477 58.291L44.1476 63.688H42.7124L42.6376 62.7162H42.1368L42.0546 63.688H40.6044L41.322 58.291H43.3477ZM42.6077 61.7594C42.533 61.1465 42.4657 60.3915 42.3909 59.4945C42.2489 60.5261 42.1592 61.281 42.1218 61.7594H42.6077Z" fill="#1A2441"/>
<path d="M47.6608 60.6455H46.2555V59.7037C46.2555 59.4346 46.2406 59.2626 46.2107 59.1954C46.1808 59.1281 46.1135 59.0907 46.0088 59.0907C45.8967 59.0907 45.822 59.1281 45.7921 59.2178C45.7622 59.3 45.7472 59.4794 45.7472 59.7485V62.2527C45.7472 62.5143 45.7622 62.6862 45.7921 62.7684C45.822 62.8507 45.8967 62.888 46.0014 62.888C46.106 62.888 46.1733 62.8507 46.2032 62.7684C46.2331 62.6862 46.248 62.4993 46.248 62.2003V61.5201H47.6534V61.7294C47.6534 62.29 47.616 62.6862 47.5338 62.9179C47.4515 63.1497 47.2796 63.359 47.0105 63.5309C46.7414 63.7103 46.405 63.7925 46.0088 63.7925C45.6127 63.7925 45.2613 63.7178 44.9922 63.5683C44.7231 63.4188 44.5512 63.2095 44.4615 62.9478C44.3718 62.6862 44.327 62.29 44.327 61.7593V60.1821C44.327 59.7934 44.3419 59.5018 44.3643 59.3075C44.3942 59.1131 44.469 58.9263 44.6035 58.7469C44.7381 58.5675 44.9175 58.4254 45.1567 58.3208C45.3884 58.2161 45.6575 58.1638 45.964 58.1638C46.3751 58.1638 46.719 58.246 46.9881 58.403C47.2572 58.56 47.4366 58.7618 47.5188 59.001C47.601 59.2402 47.6459 59.614 47.6459 60.1148V60.6306L47.6608 60.6455Z" fill="#1A2441"/>
<path d="M49.5745 58.291H48.1692V63.688H49.5745V58.291Z" fill="#1A2441"/>
<path d="M52.557 58.291L53.3568 63.688H51.9216L51.8469 62.7162H51.346L51.2638 63.688H49.8137L50.5313 58.291H52.557ZM51.817 61.7594C51.7422 61.1465 51.6749 60.3915 51.6002 59.4945C51.4582 60.5261 51.3685 61.281 51.3311 61.7594H51.817Z" fill="#1A2441"/>
<path d="M55.0013 58.291V62.6116H55.8535V63.688H53.596V58.291H55.0013Z" fill="#1A2441"/>
<path d="M60.5852 58.2904V61.8934C60.5852 62.3045 60.5702 62.5886 60.5478 62.753C60.5179 62.9175 60.4432 63.0894 60.3086 63.2613C60.174 63.4333 60.0021 63.5678 59.7928 63.6575C59.576 63.7472 59.3294 63.7921 59.0304 63.7921C58.7089 63.7921 58.4249 63.7397 58.1782 63.6351C57.9315 63.5304 57.7447 63.3884 57.6251 63.2165C57.5055 63.0446 57.4307 62.8652 57.4083 62.6708C57.3859 62.4839 57.3709 62.0803 57.3709 61.4748V58.283H58.7762V62.327C58.7762 62.5662 58.7912 62.7157 58.8136 62.7829C58.836 62.8502 58.8883 62.8801 58.9706 62.8801C59.0603 62.8801 59.1126 62.8427 59.1425 62.7755C59.1649 62.7007 59.1799 62.5288 59.1799 62.2671V58.2904H60.5852Z" fill="#1A2441"/>
<path d="M64.2629 58.291V63.688H63.037L62.3044 61.2362V63.688H61.1308V58.291H62.3044L63.0893 60.7204V58.291H64.2629Z" fill="#1A2441"/>
<path d="M66.2363 58.291H64.831V63.688H66.2363V58.291Z" fill="#1A2441"/>
<path d="M70.1308 58.291L69.4207 63.688H67.2903L66.483 58.291H67.9631C68.135 59.7785 68.2546 61.0344 68.3293 62.0659C68.4041 61.0269 68.4788 60.1 68.5611 59.2927L68.6582 58.291H70.1383H70.1308Z" fill="#1A2441"/>
<path d="M70.37 58.291H72.7097V59.3749H71.7679V60.399H72.6499V61.4231H71.7679V62.6116H72.7994V63.688H70.37V58.291Z" fill="#1A2441"/>
<path d="M73.203 58.2913H74.1972C74.8625 58.2913 75.311 58.3137 75.5427 58.3661C75.7744 58.4184 75.9688 58.5455 76.1183 58.7548C76.2678 58.9641 76.3425 59.3004 76.3425 59.7564C76.3425 60.175 76.2902 60.4591 76.1855 60.6011C76.0809 60.7431 75.8716 60.8328 75.5651 60.8627C75.8417 60.93 76.0286 61.0272 76.1257 61.1393C76.2229 61.2514 76.2827 61.3636 76.3051 61.4607C76.3276 61.5579 76.3425 61.827 76.3425 62.2606V63.6808H75.0419V61.8868C75.0419 61.5953 75.0194 61.4159 74.9746 61.3486C74.9297 61.2813 74.8101 61.244 74.6158 61.244V63.6733H73.2105V58.2764L73.203 58.2913ZM74.6083 59.2107V60.4142C74.7653 60.4142 74.8774 60.3918 74.9372 60.3469C74.997 60.3021 75.0344 60.1601 75.0344 59.9209V59.6219C75.0344 59.4499 75.0045 59.3378 74.9447 59.2855C74.8849 59.2332 74.7728 59.2033 74.6083 59.2033" fill="#1A2441"/>
<path d="M79.8484 59.9276H78.5477V59.5315C78.5477 59.3446 78.5328 59.225 78.4954 59.1726C78.4655 59.1203 78.4057 59.0979 78.3309 59.0979C78.2487 59.0979 78.1814 59.1353 78.1366 59.2025C78.0917 59.2698 78.0693 59.3745 78.0693 59.5165C78.0693 59.6959 78.0917 59.8305 78.144 59.9202C78.1889 60.0099 78.3234 60.122 78.5402 60.2491C79.1607 60.6228 79.5568 60.9218 79.7213 61.161C79.8857 61.4002 79.968 61.7814 79.968 62.3122C79.968 62.6934 79.9231 62.9774 79.8334 63.1643C79.7437 63.3437 79.5718 63.5007 79.3102 63.6203C79.056 63.7474 78.7495 63.8072 78.4132 63.8072C78.0394 63.8072 77.718 63.7324 77.4489 63.5904C77.1872 63.4484 77.0078 63.269 76.9256 63.0447C76.8434 62.8205 76.7985 62.514 76.7985 62.1103V61.759H78.0992V62.4168C78.0992 62.6186 78.1142 62.7532 78.1515 62.8055C78.1889 62.8653 78.2562 62.8877 78.3459 62.8877C78.4356 62.8877 78.5103 62.8504 78.5552 62.7756C78.6 62.7009 78.6225 62.5962 78.6225 62.4467C78.6225 62.1253 78.5776 61.9235 78.4954 61.8263C78.4057 61.7291 78.1889 61.5647 77.8376 61.3404C77.4862 61.1087 77.262 60.9442 77.1424 60.8396C77.0303 60.7349 76.9331 60.5929 76.8583 60.406C76.7836 60.2192 76.7462 59.9874 76.7462 59.6959C76.7462 59.2848 76.7985 58.9783 76.9032 58.7914C77.0078 58.5971 77.1798 58.4476 77.4115 58.3429C77.6507 58.2383 77.9347 58.1785 78.2636 58.1785C78.6299 58.1785 78.9364 58.2383 79.198 58.3579C79.4522 58.4775 79.6241 58.627 79.7063 58.8064C79.7886 58.9858 79.8334 59.2923 79.8334 59.7183V59.9351L79.8484 59.9276Z" fill="#1A2441"/>
<path d="M81.8143 58.291H80.409V63.688H81.8143V58.291Z" fill="#1A2441"/>
<path d="M85.2005 58.291V59.3749H84.3707V63.688H82.9654V59.3749H82.1357V58.291H85.2005Z" fill="#1A2441"/>
<path d="M87.6747 58.291L88.4746 63.688H87.0394L86.9646 62.7162H86.4638L86.3815 63.688H84.9314L85.649 58.291H87.6747ZM86.9347 61.7594C86.86 61.1465 86.7927 60.3915 86.7179 59.4945C86.5759 60.5261 86.4862 61.281 86.4488 61.7594H86.9347Z" fill="#1A2441"/>
<path d="M88.7137 58.2913H89.7079C90.3732 58.2913 90.8217 58.3137 91.0534 58.3661C91.2852 58.4184 91.4795 58.5455 91.629 58.7548C91.7785 58.9641 91.8458 59.3004 91.8458 59.7564C91.8458 60.175 91.7935 60.4591 91.6888 60.6011C91.5842 60.7431 91.3749 60.8328 91.0684 60.8627C91.345 60.93 91.5318 61.0272 91.629 61.1393C91.7262 61.2514 91.786 61.3636 91.8084 61.4607C91.8308 61.5579 91.8458 61.827 91.8458 62.2606V63.6808H90.5451V61.8868C90.5451 61.5953 90.5227 61.4159 90.4779 61.3486C90.433 61.2813 90.3134 61.244 90.119 61.244V63.6733H88.7137V58.2764V58.2913ZM90.119 59.2107V60.4142C90.276 60.4142 90.3882 60.3918 90.448 60.3469C90.5152 60.3021 90.5451 60.1601 90.5451 59.9209V59.6219C90.5451 59.4499 90.5152 59.3378 90.4554 59.2855C90.3956 59.2332 90.2835 59.2033 90.119 59.2033" fill="#1A2441"/>
<path d="M93.7968 58.291H92.3914V63.688H93.7968V58.291Z" fill="#1A2441"/>
<path d="M97.5642 61.4525C97.5642 61.9982 97.5492 62.3794 97.5268 62.6037C97.5044 62.8279 97.4221 63.0372 97.2876 63.2241C97.153 63.411 96.9736 63.553 96.7419 63.6502C96.5102 63.7474 96.2486 63.7997 95.9421 63.7997C95.6356 63.7997 95.3964 63.7548 95.1647 63.6577C94.933 63.5605 94.7536 63.4185 94.6115 63.2316C94.4695 63.0447 94.3873 62.8354 94.3649 62.6186C94.335 62.3944 94.3275 62.0057 94.3275 61.4525V60.5331C94.3275 59.9874 94.3424 59.6062 94.3649 59.3819C94.3873 59.1577 94.4695 58.9484 94.6041 58.7615C94.7386 58.5746 94.918 58.4326 95.1497 58.328C95.3815 58.2308 95.6431 58.1785 95.9496 58.1785C96.256 58.1785 96.4952 58.2233 96.727 58.3205C96.9587 58.4177 97.1456 58.5522 97.2801 58.7466C97.4221 58.9334 97.5044 59.1427 97.5268 59.3595C97.5567 59.5838 97.5642 59.9725 97.5642 60.5256V61.4451V61.4525ZM96.1589 59.681C96.1589 59.4268 96.1439 59.2698 96.114 59.2025C96.0841 59.1353 96.0318 59.0979 95.9421 59.0979C95.8673 59.0979 95.815 59.1278 95.7776 59.1801C95.7403 59.2399 95.7178 59.4044 95.7178 59.681V62.2C95.7178 62.514 95.7328 62.7083 95.7552 62.7831C95.7776 62.8578 95.8374 62.8952 95.9346 62.8952C96.0318 62.8952 96.0916 62.8504 96.1215 62.7681C96.1439 62.6859 96.1589 62.4841 96.1589 62.1627V59.681Z" fill="#1A2441"/>
<path d="M86.3367 29.3774C82.0087 29.3774 77.9422 27.688 74.8775 24.6307C71.8127 21.5734 70.1458 17.5444 70.1308 13.2388H69.2338C69.2488 17.7836 71.0278 22.0518 74.2421 25.2661C77.4713 28.4953 81.7695 30.2744 86.3367 30.2744V29.3774Z" fill="#1A2441"/>
<path d="M86.3367 26.1706C79.1906 26.1706 73.375 20.3774 73.3376 13.2388H72.4406C72.478 20.8708 78.6972 27.0676 86.3367 27.0676V26.1706Z" fill="#1A2441"/>
<path d="M86.3367 23.2179C80.8201 23.2179 76.3276 18.7479 76.2902 13.2388H75.3932C75.4306 19.2412 80.3267 24.115 86.3367 24.115V23.2179Z" fill="#1A2441"/>
<path d="M86.3367 20.3475C82.3973 20.3475 79.198 17.1632 79.1532 13.2388H78.2562C78.2935 17.664 81.904 21.252 86.3367 21.252V20.355V20.3475Z" fill="#1A2441"/>
<path d="M86.3367 17.3276C84.0643 17.3276 82.2179 15.4962 82.1805 13.2388H81.2835C81.3209 15.9971 83.5709 18.2246 86.3367 18.2246V17.3276Z" fill="#1A2441"/>
<path d="M10.5772 13.5146C10.5847 13.5819 10.5921 13.6492 10.5921 13.7165V19.8236C10.5921 20.7953 9.80725 21.5877 8.8355 21.5877H4.8214C3.84965 21.5877 3.06477 20.8028 3.06477 19.8236V13.7165C3.06477 13.6492 3.06477 13.5819 3.07972 13.5146H0.0224304V21.0644C0.0224304 22.8061 1.43521 24.2189 3.1769 24.2189H10.5847C12.3263 24.2189 13.7391 22.8061 13.7391 21.0644V13.5146H10.5772Z" fill="#1A2441"/>
<path d="M31.8586 16.1459H41.2996C42.2713 16.1459 43.0637 16.9307 43.0637 17.91V24.0171C43.0637 24.0844 43.0637 24.1516 43.0487 24.2189H46.2107V16.6691C46.2107 14.9274 44.7979 13.5146 43.0562 13.5146H31.8586V16.1459Z" fill="#1A2441"/>
<path d="M41.5687 17.6262H33.2116C32.3893 17.6262 31.7241 18.2915 31.7241 19.1138V22.6719C31.7241 23.4941 32.3893 24.1594 33.2116 24.1594H41.5687C42.3909 24.1594 43.0562 23.4941 43.0562 22.6719V19.1138C43.0562 18.2915 42.3909 17.6262 41.5687 17.6262ZM42.4956 20.9227C42.4956 21.2965 42.1891 21.6029 41.8154 21.6029H35.4765C35.1028 21.6029 34.7963 21.3039 34.7963 20.9227C34.7963 20.5415 35.1028 20.2425 35.4765 20.2425H41.8154C42.1891 20.2425 42.4956 20.5415 42.4956 20.9227Z" fill="#1A2441"/>
<path d="M25.9309 20.7957C26.1028 21.0124 26.5139 21.1694 26.7307 20.99C26.8204 20.9153 26.9027 20.8106 26.9251 20.6985C26.955 20.5565 26.9251 13.5 26.9251 13.5H29.9151C29.945 16.191 29.8852 18.8895 29.9151 21.5805C29.9151 23.2176 28.6742 24.5481 27.0372 24.5481C26.2149 24.5481 25.4749 24.2192 24.9367 23.681C24.3985 23.1428 19.024 16.6321 19.024 16.6321C18.8595 16.4078 18.5456 16.363 18.3213 16.5199C18.1868 16.6171 18.112 16.7741 18.1195 16.9311C18.1195 17.0282 18.1344 24.2117 18.1344 24.2117H15.0697C15.0697 24.2117 15.0472 17.9103 15.0472 16.2733C15.0472 14.6362 16.3778 13.3057 18.0148 13.3057C19.0613 13.3057 19.6444 13.6121 20.6759 14.6736L26.0355 20.9153" fill="#1A2441"/>
<path d="M58.3427 24.2419L62.1774 17.3947C62.4614 16.9238 62.6334 17.006 62.738 17.021C62.738 17.021 63.0071 17.0883 62.9922 17.3947L62.9697 24.2045H66.0495C66.0495 24.2045 66.1018 17.9479 66.1018 16.3109C66.1018 14.6738 64.7712 13.3433 63.1342 13.3433C62.1026 13.3433 61.1982 13.8665 60.66 14.6663C60.346 15.1373 56.9374 21.2967 56.9374 21.2967C56.9374 21.2967 53.5512 15.1373 53.2372 14.6663C52.7065 13.8665 51.7946 13.3433 50.7705 13.3433C49.1334 13.3433 47.8029 14.6738 47.8029 16.3109C47.8029 17.9479 47.8552 24.2045 47.8552 24.2045H50.9349L50.9125 17.3947C50.905 17.0883 51.1667 17.021 51.1667 17.021C51.2713 17.0135 51.4432 16.9238 51.7273 17.3947L55.562 24.2419H58.3427Z" fill="#1A2441"/>
<path d="M59.4415 30.1843H41.4566C37.1734 30.1843 33.6975 33.6602 33.6975 37.9434V46.607C33.6975 50.8902 37.1734 54.3661 41.4566 54.3661H65.8252L65.8701 48.5879H43.5197C41.9724 48.5879 40.724 47.3321 40.724 45.7922V44.9251L62.5736 44.9401C64.7189 44.9401 66.4606 43.1984 66.4606 41.053V37.2109C66.4606 33.3388 63.3211 30.1918 59.4415 30.1918V30.1843ZM59.4415 37.607C59.2322 37.7864 59.0155 37.9658 58.7464 38.063C58.4847 38.1527 58.2381 38.2499 57.9764 38.3246C57.7223 38.3994 57.4606 38.4592 57.199 38.519C57.0794 38.5489 56.9598 38.5713 56.8327 38.5937C56.8327 38.5414 56.8253 38.4891 56.8253 38.4442C56.8253 38.1677 56.8402 37.8911 56.8253 37.6145C56.7804 36.5531 56.4889 35.5589 55.9507 34.6394C55.719 34.2433 55.4424 33.8695 55.1284 33.5331C54.4108 32.7483 53.5512 32.1802 52.5496 31.8139C52.273 31.7167 51.9964 31.6195 51.7049 31.5896C51.6301 31.5373 51.5479 31.5373 51.4582 31.5448C51.3984 31.4925 51.3311 31.485 51.2564 31.4999C51.2115 31.4999 51.1592 31.4999 51.1143 31.4999C50.9723 31.4327 50.8153 31.4476 50.6658 31.4551C50.606 31.4551 50.5388 31.4551 50.479 31.4551C50.3444 31.4401 50.2099 31.4252 50.0753 31.4925C50.008 31.4999 49.9482 31.4999 49.8884 31.5074C49.8137 31.4925 49.7464 31.5074 49.6866 31.5448H49.6492C49.5745 31.5373 49.5072 31.5448 49.4399 31.5896C48.8494 31.6868 48.2963 31.8886 47.7805 32.1876C47.474 32.367 47.175 32.5614 46.9059 32.7931C46.7938 32.8903 46.6443 32.9501 46.5471 33.0697C46.435 33.2042 46.3004 33.3164 46.2032 33.4733C46.1135 33.6154 45.9939 33.735 45.8968 33.8695C45.3511 34.6394 45.0222 35.4916 44.9101 36.426C44.8503 36.9268 44.8503 37.4276 44.9325 37.9285L44.9549 37.9957C45.0596 38.5265 45.2464 39.0273 45.5454 39.4833C45.6202 39.6029 45.7174 39.7075 45.8071 39.8196C45.9042 39.9467 46.0089 40.0663 46.121 40.1784C46.2257 40.2756 46.3303 40.3728 46.4499 40.455C46.5919 40.5597 46.7489 40.6344 46.876 40.7466C46.9806 40.8363 47.1077 40.8736 47.2273 40.9409C47.7282 41.2175 48.2738 41.3745 48.8345 41.4866C48.8868 41.4941 48.9466 41.4941 49.0064 41.5015C49.0886 41.5539 49.1708 41.5613 49.2605 41.5389C49.2755 41.5389 49.283 41.5389 49.2979 41.5464C49.3801 41.6062 49.4624 41.5912 49.5521 41.5838C49.7016 41.5838 49.8511 41.5987 50.008 41.5912C50.0828 41.5912 50.1575 41.5613 50.2398 41.5464C50.2697 41.5464 50.2996 41.5464 50.322 41.5389C50.3967 41.5539 50.464 41.5389 50.5238 41.4941C51.062 41.3745 51.5404 41.1353 51.9665 40.7839C52.0412 40.7241 52.116 40.6643 52.1609 40.5746C52.1833 40.5373 52.2206 40.4999 52.2655 40.47C52.4225 40.3728 52.5197 40.2308 52.6243 40.0813C52.9682 39.5954 53.1924 39.0721 53.2597 38.4741C53.2597 38.4592 53.2597 38.4442 53.2597 38.4218C53.2597 38.3994 53.2672 38.377 53.2746 38.3545V38.2574C53.2746 38.2574 53.2821 38.22 53.2821 38.205C53.3494 37.3753 53.1476 36.6203 52.6542 35.9401C52.3029 35.4542 51.8394 35.1179 51.2489 34.9684C51.1891 34.9534 51.1218 34.9459 51.0545 34.9385C50.8602 34.8712 50.5761 34.8712 50.3594 34.9385C50.2771 34.9534 50.2024 34.9758 50.1202 34.9908C50.0604 34.9908 50.008 34.9908 49.9707 35.0356C49.9557 35.0356 49.9408 35.0356 49.9258 35.0506C49.8959 35.0655 49.866 35.0805 49.8361 35.0954L49.7315 35.1478L49.6717 35.1851C49.6717 35.1851 49.6418 35.1851 49.6343 35.2001C49.6193 35.2076 49.5969 35.2225 49.582 35.2375C49.567 35.2375 49.5521 35.2375 49.5446 35.2599C49.5296 35.2748 49.5147 35.2823 49.5072 35.2973H49.4997C49.4997 35.2973 49.4624 35.3272 49.4399 35.3421L49.2979 35.4542C49.2979 35.4542 49.268 35.4841 49.2531 35.4916C49.2531 35.4916 49.2232 35.5215 49.2082 35.5365C49.1933 35.5514 49.1708 35.5738 49.1559 35.5888C49.1409 35.6037 49.126 35.6187 49.111 35.6336C49.111 35.6336 49.0811 35.671 49.0737 35.6785C49.0512 35.7084 49.0288 35.7383 49.0064 35.7682C48.9391 35.828 48.9092 35.9027 48.8943 36.0223C48.9765 35.9476 49.0512 35.9177 49.0662 35.828C49.1484 35.7757 49.2232 35.7233 49.3054 35.671L49.3203 35.686L49.3353 35.671H49.3502C49.3502 35.671 49.3801 35.6411 49.3876 35.6262C49.4624 35.5589 49.5521 35.5514 49.6418 35.514C49.6717 35.4991 49.7016 35.4916 49.7315 35.4767H49.7389C49.7838 35.4617 49.8286 35.4468 49.8735 35.4243C49.8959 35.4243 49.9109 35.4169 49.9333 35.4094C49.9781 35.3944 50.023 35.387 50.0753 35.372C50.0903 35.372 50.1052 35.372 50.1276 35.372H50.7705C51.518 35.5365 52.0412 35.985 52.3701 36.6652C52.5645 37.0763 52.6542 37.5099 52.6019 37.9658C52.5795 38.1452 52.5645 38.3172 52.5346 38.4966C52.5047 38.6909 52.43 38.8703 52.3477 39.0422C51.9291 39.872 51.2713 40.4102 50.3668 40.627C49.7464 40.7765 49.1335 40.7615 48.5205 40.5821C48.1991 40.4849 47.9076 40.328 47.631 40.1411C46.876 39.6253 46.3453 38.9451 46.0687 38.063C46.0014 37.8537 45.9416 37.6444 45.9416 37.4202C45.9416 37.4202 45.9566 37.4052 45.9491 37.3977C45.9491 37.3828 45.9341 37.3678 45.9267 37.3604C45.8893 37.1062 45.8968 36.8446 45.9192 36.583C45.9267 36.4858 45.9416 36.3886 45.9491 36.2914L45.964 36.2242C46.1285 35.2674 46.5546 34.4451 47.2273 33.7424C47.7132 33.2416 48.2813 32.8529 48.9242 32.5913C49.2755 32.4493 49.6567 32.382 50.0305 32.3297H50.2323C50.5163 32.3297 50.8004 32.3371 51.0844 32.3446C51.1069 32.3446 51.1368 32.3446 51.1592 32.3371C51.9815 32.4493 52.7364 32.7333 53.4167 33.2117C53.5886 33.3313 53.768 33.4509 53.91 33.6079C54.0147 33.72 54.1044 33.8396 54.224 33.9368C54.6575 34.3031 54.9416 34.789 55.1808 35.2898C55.3751 35.6934 55.4947 36.1195 55.5545 36.568C55.5396 36.6278 55.5321 36.6801 55.5844 36.725C55.6068 36.8969 55.6293 37.0763 55.6517 37.2482C55.6517 37.2707 55.6517 37.2856 55.6517 37.3006C55.6517 37.3305 55.6517 37.3529 55.6517 37.3828C55.6517 37.4052 55.6592 37.4276 55.6666 37.4426V37.5323C55.6666 37.5323 55.6517 37.5771 55.6816 37.5921C55.6965 37.9285 55.7115 38.2648 55.6666 38.6087C55.6666 38.6311 55.6666 38.6461 55.6592 38.6685C55.6367 38.8255 55.6293 38.9899 55.5919 39.1469C55.4349 39.7823 55.1882 40.3803 54.8369 40.926C54.7173 41.1128 54.6127 41.3147 54.4407 41.4716C54.3585 41.5464 54.3137 41.6585 54.2389 41.7407C54.1567 41.8379 54.052 41.9127 53.9623 42.0098C53.7979 42.1743 53.6559 42.3686 53.4615 42.5032C53.1999 42.6901 52.9906 42.9442 52.6766 43.0563C52.557 43.1834 52.3702 43.1984 52.2506 43.3254C52.2207 43.3628 52.1609 43.3628 52.1235 43.3927C52.0487 43.46 51.9441 43.4376 51.8618 43.5048C51.7946 43.5646 51.6899 43.5945 51.6002 43.6244C51.5105 43.6543 51.4134 43.6842 51.3237 43.7067C51.2265 43.7366 51.1368 43.759 51.0396 43.7814C50.8751 43.8188 50.7032 43.8487 50.5388 43.8786C50.4715 43.8711 50.3967 43.8562 50.3369 43.916C50.307 43.916 50.2771 43.916 50.2472 43.9234C50.1276 43.9234 50.008 43.901 49.9034 43.9683C49.582 43.9683 49.2605 43.9683 48.9391 43.9683C48.8644 43.9085 48.7747 43.916 48.685 43.9309C47.5936 43.7814 46.5845 43.4002 45.68 42.7798C44.469 41.95 43.5795 40.8587 43.0637 39.4833C42.974 39.2441 42.9142 38.9899 42.8395 38.7432C42.832 38.7133 42.8245 38.6834 42.8096 38.6386C42.6451 38.6012 42.4807 38.5638 42.3162 38.5265C41.8902 38.4218 41.4641 38.3097 41.0754 38.1228C40.9333 38.0555 40.7913 37.9658 40.6642 37.8761C40.5521 37.7939 40.4549 37.6967 40.4101 37.5547C40.4101 37.5547 40.4176 37.5398 40.4101 37.5323C40.4101 37.5173 40.3951 37.5099 40.3877 37.5024C40.3802 37.4426 40.3727 37.3753 40.3652 37.3155C40.4026 37.2856 40.4101 37.2482 40.3951 37.2034C40.44 37.0165 40.5745 36.9044 40.7166 36.7997C40.9707 36.6054 41.2622 36.4933 41.5612 36.3886C41.9649 36.2466 42.376 36.1419 42.7946 36.0448C42.8694 36.0298 42.9516 36.0074 43.0338 35.9924C43.0787 35.9924 43.1235 35.9999 43.1684 36.0074C43.1684 36.112 43.1684 36.2167 43.1609 36.3213C43.1609 36.3438 43.1534 36.3662 43.146 36.3886C43.146 36.5306 43.146 36.6727 43.146 36.8147C43.146 36.8371 43.1534 36.8595 43.1609 36.882C43.1609 37.3379 43.2132 37.779 43.2955 38.2275C43.2955 38.2499 43.3104 38.2723 43.3104 38.2947C43.4524 39.0647 43.7514 39.7673 44.17 40.4177C44.2971 40.612 44.4391 40.8064 44.5886 40.9858C44.6709 41.0904 44.7307 41.21 44.8428 41.2997C44.9474 41.3894 45.0371 41.4866 45.1418 41.5838C46.0089 42.4135 47.175 43.0414 48.4084 43.2582C48.827 43.3329 49.2381 43.3778 49.6642 43.3479C49.8286 43.3404 49.9856 43.318 50.1501 43.2955C50.2398 43.3105 50.322 43.2955 50.4042 43.2507C50.5014 43.2357 50.5911 43.2133 50.6883 43.1984C50.763 43.2133 50.8228 43.1909 50.8826 43.1535C50.9574 43.1685 51.0172 43.1386 51.077 43.1012C51.9142 42.8396 52.6318 42.3836 53.2821 41.808C53.9549 41.21 54.4482 40.4849 54.7622 39.6402C54.8967 39.2814 54.9864 38.9152 55.0387 38.5339C55.0985 38.4592 55.0911 38.3695 55.0761 38.2798C55.0911 37.9808 55.1135 37.6818 55.0761 37.3828C54.949 36.3961 54.6426 35.4767 53.9997 34.6918C53.3419 33.8919 52.5122 33.3537 51.4956 33.1295C51.4731 33.1295 51.4507 33.1295 51.4208 33.122C51.3461 33.0697 51.2564 33.0622 51.1741 33.0772H51.1517H51.1293C51.0919 33.0622 51.0545 33.0398 51.0172 33.0398C50.7705 33.0398 50.5238 33.0398 50.2771 33.0398C50.2472 33.0398 50.2173 33.0622 50.1874 33.0697C49.6492 33.1145 49.1409 33.2865 48.685 33.5705C48.528 33.6677 48.3785 33.7873 48.2215 33.8845C48.1019 33.9592 47.9823 34.0414 47.8777 34.1461C47.3619 34.6843 46.9956 35.2973 46.8087 36.0149C46.7489 36.2466 46.719 36.4783 46.7041 36.71C46.7041 36.7325 46.6966 36.7549 46.6891 36.7773C46.6742 37.1436 46.719 37.5024 46.8237 37.8537C46.9433 38.2349 47.1376 38.5638 47.3993 38.8554C47.631 39.1095 47.9225 39.2814 48.229 39.4384C48.5056 39.5879 48.7971 39.6701 49.111 39.6926C49.283 39.7524 49.5371 39.7524 49.7016 39.6926C49.8286 39.6552 49.9557 39.6178 50.0903 39.5804C50.1202 39.5655 50.1426 39.5505 50.1725 39.5356L50.3818 39.4309C50.4416 39.4085 50.5014 39.3861 50.5163 39.2889C50.4042 39.3263 50.2921 39.3562 50.1874 39.3861C50.0903 39.3861 50.0006 39.3936 49.9034 39.401C49.7539 39.401 49.6044 39.401 49.4549 39.401C49.268 39.3487 49.0737 39.3113 48.8943 39.2515C48.0944 38.9899 47.4366 38.1079 47.3544 37.2856C47.3395 37.1361 47.3395 36.9791 47.332 36.8222C47.332 36.7997 47.3395 36.7773 47.3469 36.7549C47.3918 36.0896 47.6609 35.529 48.1019 35.0356C48.4308 34.6693 48.827 34.3928 49.283 34.2059C49.4175 34.1536 49.5595 34.1162 49.6941 34.0788C49.7688 34.0938 49.8361 34.0788 49.9034 34.034C50.0903 34.019 50.2697 33.9891 50.4565 33.9816C51.8319 33.9667 53.2597 34.7964 53.8427 36.2989C53.8652 36.3512 53.8801 36.4036 53.8951 36.4559C53.9025 36.4783 53.91 36.5007 53.9175 36.5157C53.925 36.5605 53.9399 36.5979 53.9474 36.6428C53.9549 36.6652 53.9623 36.6876 53.9698 36.71C54.0072 36.9343 54.0446 37.1585 54.0894 37.3753C54.0745 37.4351 54.067 37.4874 54.1193 37.5323C54.1193 37.8238 54.1118 38.1153 54.1044 38.3994C54.1044 38.4218 54.0969 38.4368 54.0969 38.4592C54.0745 38.8703 53.9698 39.259 53.8054 39.6253C53.6484 39.9841 53.4765 40.328 53.1999 40.6045C53.1102 40.8213 52.8859 40.911 52.7514 41.0979C52.6991 41.1726 52.5944 41.2025 52.5346 41.2698C52.4748 41.3371 52.3926 41.3745 52.3253 41.4268C52.1833 41.5464 52.0263 41.6436 51.8618 41.7258C51.7497 41.7781 51.6376 41.8454 51.5255 41.8977C51.3984 41.95 51.2713 42.0024 51.1368 42.0397C51.0172 42.0846 50.8901 42.1145 50.763 42.1444C50.6883 42.1294 50.621 42.1294 50.5687 42.1892C50.5537 42.1892 50.5388 42.1892 50.5238 42.1967C50.4341 42.1818 50.3519 42.1892 50.2697 42.2416C50.2398 42.2416 50.2099 42.2416 50.18 42.2416C49.8212 42.2416 49.4624 42.2416 49.1036 42.2416C49.0737 42.2416 49.0438 42.2416 49.0139 42.2341C48.9242 42.1668 48.8195 42.1818 48.7223 42.1892C48.3037 42.1145 47.9001 42.0098 47.5114 41.8454C46.9134 41.5987 46.3752 41.2623 45.8968 40.8363C45.239 40.2457 44.7531 39.5356 44.4616 38.7059C44.2822 38.1901 44.1775 37.6594 44.185 37.1137C44.185 36.9268 44.185 36.7399 44.1925 36.5531C44.2149 36.5306 44.2298 36.5157 44.1999 36.4858C44.2149 36.3737 44.2298 36.269 44.2448 36.1569C44.2896 36.112 44.2971 36.0597 44.2747 35.9999C44.3494 35.4767 44.5214 34.9758 44.7307 34.4974C44.9474 34.0115 45.2315 33.563 45.5604 33.1444C45.9267 32.681 46.3602 32.2848 46.8386 31.9335C47.0853 31.7541 47.3469 31.5971 47.6086 31.4476C48.1019 31.171 48.6252 30.9916 49.1783 30.887C49.3951 30.8496 49.6119 30.8197 49.8212 30.7823C49.9557 30.7973 50.0903 30.7823 50.2248 30.745H50.8452C50.9574 30.7898 51.077 30.7973 51.1966 30.7898C52.2206 30.9318 53.1849 31.2533 54.0595 31.8139C54.3211 31.9858 54.5753 32.1802 54.8294 32.367C54.8818 32.4044 54.9117 32.4567 54.9565 32.5091C54.9789 32.5315 55.0014 32.5614 55.0238 32.5763C55.1509 32.6361 55.2406 32.7408 55.3377 32.838C55.5022 33.0024 55.6517 33.1818 55.8012 33.3612C55.9582 33.5481 56.1002 33.7499 56.2347 33.9517C56.3618 34.1461 56.4814 34.3554 56.5861 34.5647C56.6907 34.774 56.7879 34.9908 56.8701 35.2076C56.9374 35.3795 56.9897 35.5589 57.042 35.7383C57.057 35.7757 57.072 35.813 57.0794 35.8504C57.3784 35.9252 57.67 35.9924 57.9615 36.0672C58.2754 36.1494 58.5819 36.2466 58.8809 36.3886C58.993 36.4409 59.0977 36.5007 59.2023 36.568C59.2995 36.6278 59.3668 36.7175 59.449 36.7923C59.6508 36.9791 59.6733 37.3379 59.4266 37.5547L59.4415 37.607Z" fill="#1A2441"/>
</svg>
