<svg width="741" height="399" viewBox="0 0 741 399" fill="none" xmlns="http://www.w3.org/2000/svg">
<g clip-path="url(#clip0_1_495)">
<path d="M740 292.46C728.243 262.944 703.542 247.943 677.372 235.057C634.118 213.76 587.679 202.855 540.447 194.87C468.264 182.659 395.509 179.958 322.548 183.466C256.544 186.636 191.26 195.369 127.663 214.039C97.7068 222.845 68.543 233.824 42.0358 250.718C23.9534 262.239 7.99913 275.83 0.0587117 296.804C-0.587089 282.905 5.31318 271.545 13.5178 261.226C30.0151 240.458 52.2365 227.293 75.6761 216.182C122.673 193.902 172.722 181.646 223.785 173.295C275.874 164.782 328.39 160.922 381.155 161.289C451.136 161.773 520.545 168.158 588.457 185.77C629.128 196.323 668.786 209.9 703.189 235.13C718.659 246.461 731.927 259.803 737.358 279.015C738.591 283.389 739.163 287.954 740.029 292.445L740 292.46Z" fill="#488EC6"/>
<path d="M562.625 370.646L548.931 398.283H511.093V397.006L524.919 370.646H562.625ZM572.488 350.758L592.023 311.32C592.449 310.586 593.139 310.205 594.093 310.205H596.001C597.058 310.205 597.806 310.572 598.232 311.32L616.52 347.881C617.034 348.894 617.503 349.848 617.958 350.758H654.93L621.437 286.354C620.585 284.872 619.764 283.859 618.971 283.331C618.178 282.802 616.872 282.538 615.081 282.538H575.174C573.369 282.538 572.106 282.802 571.358 283.331C570.609 283.859 569.875 284.872 569.127 286.354L535.354 350.758H572.488ZM570.404 370.646V373.156L579.944 398.269H678.986V396.992L665.278 370.631H570.404V370.646ZM488.813 350.758L543.368 283.815V282.538H506.161L472.932 324.823C472.506 325.352 471.978 325.616 471.347 325.616H470.231C469.703 325.616 469.351 325.528 469.204 325.381C469.057 325.234 468.852 325.044 468.646 324.823L434.786 282.538H397.417V283.815L452.178 350.758H488.813ZM453.866 370.646V398.283H486.611V370.646H453.866ZM323.047 350.758L342.583 311.32C343.008 310.586 343.698 310.205 344.652 310.205H346.56C347.617 310.205 348.366 310.572 348.791 311.32L367.079 347.881C367.593 348.894 368.063 349.848 368.518 350.758H405.504L372.011 286.354C371.159 284.872 370.338 283.859 369.545 283.331C368.752 282.802 367.446 282.538 365.655 282.538H325.748C323.943 282.538 322.68 282.802 321.932 283.331C321.183 283.859 320.449 284.872 319.701 286.354L285.928 350.758H323.062H323.047ZM320.963 370.646V373.156L330.503 398.269H429.546V396.992L415.837 370.631H320.963V370.646ZM275.478 370.646L261.652 397.006V398.283H299.49L313.184 370.646H275.478ZM100.129 397.006V398.283H139.875L166.529 370.646H125.579L100.129 397.006ZM201.71 336.917L255.767 283.815V282.538H216.182L179.929 318.307L146.23 282.538H105.53V283.815L157.986 337.079L144.777 350.758H214.699L201.695 336.917H201.71ZM216.49 398.283H258.144V397.006L233.384 370.646H190.702L216.49 398.283ZM58.1514 398.283H90.8965V370.646H58.1514V398.283ZM90.8965 282.553H58.1514V350.758H90.8965V282.553Z" fill="white"/>
<path d="M280.013 223.051H290.009L299.343 248.575H299.49L308.722 223.051H318.762V258.966H312.421V230.096H312.318L301.413 258.966H296.951L286.193 230.096H286.09V258.966H279.999V223.051H280.013Z" fill="white"/>
<path d="M326.291 223.051H332.676V258.966H326.291V223.051Z" fill="white"/>
<path d="M358.493 230.566C357.818 229.685 356.864 228.951 355.631 228.364C354.398 227.777 353.15 227.469 351.903 227.469C351.154 227.469 350.42 227.557 349.672 227.748C348.923 227.939 348.248 228.217 347.646 228.614C347.045 228.995 346.531 229.509 346.149 230.14C345.753 230.771 345.562 231.52 345.562 232.401C345.562 233.208 345.738 233.912 346.076 234.485C346.414 235.057 346.883 235.556 347.47 235.952C348.057 236.363 348.777 236.716 349.628 237.024C350.479 237.332 351.404 237.626 352.417 237.934C353.561 238.301 354.765 238.726 355.998 239.196C357.231 239.666 358.361 240.297 359.403 241.075C360.43 241.853 361.282 242.836 361.942 244.01C362.603 245.199 362.926 246.667 362.926 248.428C362.926 250.351 362.573 252.039 361.854 253.477C361.15 254.915 360.196 256.104 359.007 257.058C357.818 258.012 356.438 258.717 354.853 259.187C353.268 259.656 351.595 259.891 349.833 259.891C347.5 259.891 345.21 259.465 342.979 258.599C340.748 257.734 338.913 256.457 337.504 254.769L342.069 250.512C342.95 251.731 344.124 252.699 345.592 253.404C347.059 254.108 348.512 254.475 349.921 254.475C350.67 254.475 351.433 254.387 352.211 254.196C352.989 254.005 353.693 253.697 354.31 253.257C354.941 252.817 355.44 252.274 355.836 251.613C356.218 250.953 356.423 250.131 356.423 249.147C356.423 248.164 356.203 247.415 355.763 246.784C355.323 246.153 354.736 245.61 353.987 245.155C353.238 244.7 352.358 244.304 351.345 243.966C350.332 243.629 349.261 243.276 348.145 242.895C347.059 242.557 345.988 242.146 344.902 241.677C343.816 241.207 342.847 240.576 341.981 239.798C341.115 239.02 340.411 238.066 339.882 236.936C339.339 235.806 339.075 234.397 339.075 232.694C339.075 230.874 339.457 229.289 340.22 227.983C340.983 226.676 341.981 225.576 343.214 224.71C344.447 223.844 345.856 223.198 347.426 222.787C348.997 222.361 350.597 222.156 352.226 222.156C354.046 222.156 355.91 222.479 357.774 223.124C359.638 223.77 361.282 224.724 362.661 226.016L358.508 230.581L358.493 230.566Z" fill="white"/>
<path d="M368.899 223.051H375.284V258.966H368.899V223.051Z" fill="white"/>
<path d="M381.081 240.913C381.081 238.036 381.566 235.439 382.534 233.12C383.503 230.801 384.839 228.834 386.541 227.205C388.244 225.575 390.284 224.328 392.632 223.447C394.981 222.567 397.549 222.126 400.323 222.126C403.097 222.126 405.725 222.567 408.088 223.447C410.451 224.328 412.505 225.575 414.223 227.205C415.94 228.834 417.29 230.801 418.259 233.12C419.228 235.439 419.712 238.036 419.712 240.913C419.712 243.79 419.228 246.285 418.259 248.604C417.29 250.923 415.955 252.919 414.223 254.592C412.505 256.266 410.451 257.572 408.088 258.497C405.725 259.421 403.141 259.891 400.323 259.891C397.505 259.891 394.981 259.421 392.632 258.497C390.284 257.572 388.259 256.266 386.541 254.592C384.839 252.919 383.503 250.923 382.534 248.604C381.566 246.285 381.081 243.731 381.081 240.913ZM388.024 240.913C388.024 242.836 388.317 244.612 388.919 246.212C389.521 247.812 390.357 249.206 391.458 250.395C392.559 251.584 393.865 252.494 395.362 253.154C396.874 253.815 398.533 254.137 400.367 254.137C402.202 254.137 403.861 253.8 405.387 253.154C406.913 252.494 408.22 251.569 409.32 250.395C410.421 249.206 411.258 247.812 411.86 246.212C412.447 244.612 412.74 242.836 412.74 240.913C412.74 238.99 412.447 237.332 411.86 235.747C411.273 234.162 410.421 232.767 409.35 231.593C408.264 230.404 406.957 229.48 405.446 228.804C403.919 228.129 402.231 227.792 400.367 227.792C398.503 227.792 396.83 228.129 395.318 228.804C393.807 229.48 392.515 230.404 391.444 231.593C390.372 232.782 389.521 234.162 388.934 235.747C388.347 237.332 388.038 239.064 388.038 240.913H388.024ZM402.173 212.909H409.071L401.923 220.218H397.153L402.173 212.909Z" fill="white"/>
<path d="M425.465 223.051H433.934L450.622 249.94H450.725V223.051H457.124V258.966H449.008L431.968 231.212H431.865V258.966H425.48V223.051H425.465Z" fill="white"/>
<path d="M424.145 36.1207L371.673 66.1064C369.442 67.3833 367.622 70.4509 367.622 72.9607V131.817C367.622 134.326 369.442 135.325 371.673 134.048L424.145 104.062C426.375 102.785 428.195 99.7174 428.195 97.2076V38.3516C428.195 35.8418 426.375 34.8437 424.145 36.1207ZM390.431 89.3552C390.431 84.7319 393.777 79.0518 397.902 76.7034C402.026 74.355 405.372 76.1897 405.372 80.813C405.372 85.4364 402.026 91.1165 397.902 93.4649C393.777 95.8132 390.431 93.9786 390.431 89.3552ZM404.257 71.7718C402.481 71.3168 400.279 71.6838 397.916 73.0488C395.48 74.4431 393.234 76.6447 391.444 79.2132L373.009 69.0125L422.794 40.5532L404.257 71.7718ZM389.169 83.1321C387.921 85.8033 387.187 88.6214 387.187 91.2192C387.187 93.8171 387.95 95.8426 389.227 97.0902L370.895 127.971V73.0047L389.169 83.1321ZM391.517 98.3818C393.308 98.8514 395.509 98.4992 397.916 97.1195C400.206 95.8132 402.334 93.7731 404.081 91.3954L422.28 101.479L372.935 129.674L391.517 98.3818ZM406.429 87.5206C407.809 84.7025 408.645 81.7084 408.645 78.949C408.645 76.1897 407.867 74.2816 406.561 73.0341L424.937 42.0943V97.7653L406.429 87.5206Z" fill="white"/>
<path d="M366.639 131.817V72.9607C366.639 70.4509 364.819 67.3833 362.588 66.1064L310.117 36.1207C307.886 34.8437 306.066 35.8418 306.066 38.3516V97.2076C306.066 99.7174 307.886 102.785 310.117 104.062L362.588 134.048C364.819 135.325 366.639 134.326 366.639 131.817ZM336.36 76.7034C340.484 79.0518 343.83 84.7319 343.83 89.3552C343.83 93.9786 340.484 95.8279 336.36 93.4649C332.235 91.1165 328.889 85.4364 328.889 80.813C328.889 76.1897 332.235 74.3404 336.36 76.7034ZM361.238 129.615L311.452 101.17L329.887 90.9697C331.692 93.5383 333.938 95.7399 336.36 97.1342C338.737 98.4992 340.924 98.8661 342.7 98.4111L361.238 129.63V129.615ZM309.324 97.1635V42.1971L327.656 73.0781C326.379 74.3257 325.616 76.3218 325.616 78.949C325.616 81.5763 326.35 84.3503 327.597 87.0362L309.324 97.1635ZM311.379 40.5092L360.724 68.7043L342.524 78.7876C340.777 76.4099 338.649 74.3697 336.36 73.0634C333.967 71.6984 331.751 71.3315 329.96 71.8012L311.379 40.5092ZM363.381 72.4176V128.089L345.005 97.1342C346.311 95.8866 347.089 93.8905 347.089 91.2339C347.089 88.5773 346.252 85.4804 344.872 82.6624L363.381 72.4176Z" fill="white"/>
<path d="M423.557 29.6774L371.526 0.939279C370.367 0.293478 368.826 -0.0147448 367.314 0.0146097H367.211C365.685 -6.75526e-05 364.144 0.308156 362.999 0.939279L310.968 29.6921C308.752 30.9103 308.766 32.8771 310.997 34.0806L363.381 63.6554C364.437 64.2278 365.817 64.5213 367.211 64.536H367.314C368.708 64.5213 370.088 64.2278 371.145 63.6554L423.528 34.0806C425.759 32.8918 425.774 30.925 423.557 29.6921M364.907 3.41974L364.878 23.4249C361.795 23.7038 358.845 24.4817 356.482 25.7733C354.06 27.1089 352.666 28.7821 352.255 30.4994L315.518 30.6902L364.907 3.41974ZM364.834 60.9107L315.914 33.2L352.343 33.0092C352.857 34.6237 354.251 36.1795 356.556 37.4124C358.904 38.6746 361.81 39.4085 364.848 39.658L364.819 60.9254L364.834 60.9107ZM367.27 37.2509H367.241C364.555 37.2656 361.854 36.7225 359.799 35.6217C355.69 33.4201 355.66 29.7802 359.755 27.5199C361.795 26.3897 364.496 25.8173 367.182 25.8026C369.868 25.8173 372.73 26.3897 374.785 27.5199C378.865 29.7802 378.85 33.4055 374.741 35.6217C372.686 36.7225 369.985 37.2656 367.299 37.2509M369.706 60.9107L369.677 39.6433C372.715 39.3938 375.636 38.6599 377.97 37.3977C380.274 36.1648 381.668 34.609 382.182 32.9945L418.611 33.1853L369.692 60.896L369.706 60.9107ZM382.285 30.4994C381.859 28.7821 380.465 27.1089 378.058 25.7733C375.695 24.467 372.745 23.6891 369.662 23.4249L369.633 3.41974L419.007 30.7048L382.27 30.514L382.285 30.4994Z" fill="white"/>
</g>
<defs>
<clipPath id="clip0_1_495">
<rect width="741" height="399" fill="white"/>
</clipPath>
</defs>
</svg>
